<?xml version="1.0" encoding="UTF-8" standalone="no"?>
<!DOCTYPE svg PUBLIC "-//W3C//DTD SVG 1.1//EN" "http://www.w3.org/Graphics/SVG/1.1/DTD/svg11.dtd">
<svg width="100%" height="100%" viewBox="0 0 311 311" version="1.1" xmlns="http://www.w3.org/2000/svg" xmlns:xlink="http://www.w3.org/1999/xlink" xml:space="preserve" style="fill-rule:evenodd;clip-rule:evenodd;stroke-linejoin:round;stroke-miterlimit:1.41421;">
    <g id="Ellipse-6" transform="matrix(1,0,0,1,-355.353,-198.353)">
        <path d="M510.874,238.001L511.247,238.002L511.62,238.005L511.993,238.009L512.365,238.015L512.738,238.021L513.11,238.029L513.481,238.038L513.853,238.048L514.224,238.059L514.594,238.071L514.965,238.085L515.335,238.1L515.705,238.115L516.074,238.132L516.444,238.15L516.813,238.17L517.181,238.19L517.55,238.212L517.918,238.235L518.285,238.259L518.653,238.284L519.02,238.31L519.387,238.337L519.753,238.366L520.119,238.395L520.485,238.426L520.851,238.458L521.216,238.491L521.581,238.525L521.945,238.561L522.309,238.597L522.673,238.635L523.037,238.673L523.4,238.713L523.763,238.754L524.125,238.796L524.487,238.839L524.849,238.884L525.211,238.929L525.572,238.976L525.932,239.023L526.293,239.072L526.653,239.122L527.013,239.173L527.372,239.225L527.731,239.278L528.09,239.332L528.448,239.388L528.806,239.444L529.163,239.502L529.52,239.56L529.877,239.62L530.234,239.681L530.59,239.743L530.945,239.806L531.301,239.87L531.656,239.935L532.01,240.002L532.364,240.069L532.718,240.137L533.072,240.207L533.425,240.278L533.777,240.349L534.13,240.422L534.481,240.496L534.833,240.571L535.184,240.647L535.535,240.724L535.885,240.802L536.235,240.881L536.584,240.961L536.933,241.042L537.282,241.125L537.63,241.208L537.978,241.292L538.325,241.378L538.672,241.464L539.019,241.552L539.365,241.64L539.711,241.73L540.056,241.821L540.401,241.912L540.746,242.005L541.09,242.099L541.434,242.194L541.777,242.29L542.12,242.387L542.462,242.484L542.804,242.583L543.145,242.683L543.486,242.784L543.827,242.886L544.167,242.989L544.507,243.093L544.846,243.199L545.185,243.305L545.523,243.412L545.861,243.52L546.199,243.629L546.536,243.739L546.872,243.85L547.209,243.962L547.544,244.076L547.879,244.19L548.214,244.305L548.548,244.421L548.882,244.538L549.216,244.656L549.548,244.775L549.881,244.895L550.213,245.016L550.544,245.139L550.875,245.262L551.206,245.386L551.536,245.511L551.865,245.637L552.194,245.764L552.523,245.892L552.851,246.021L553.179,246.15L553.506,246.281L553.832,246.413L554.158,246.546L554.484,246.68L554.809,246.815L555.134,246.95L555.458,247.087L555.781,247.224L556.105,247.363L556.427,247.503L556.749,247.643L557.071,247.785L557.392,247.927L557.712,248.07L558.032,248.214L558.352,248.36L558.671,248.506L558.99,248.653L559.307,248.801L559.625,248.95L559.942,249.1L560.258,249.251L560.574,249.402L560.889,249.555L561.204,249.709L561.518,249.863L561.832,250.019L562.145,250.175L562.458,250.333L562.77,250.491L563.082,250.65L563.393,250.81L563.703,250.971L564.013,251.133L564.322,251.296L564.631,251.459L564.939,251.624L565.247,251.79L565.554,251.956L565.861,252.123L566.167,252.292L566.472,252.461L566.777,252.631L567.081,252.802L567.385,252.973L567.688,253.146L567.991,253.32L568.293,253.494L568.594,253.67L568.895,253.846L569.196,254.023L569.495,254.201L569.794,254.38L570.093,254.56L570.391,254.74L570.688,254.922L570.985,255.104L571.281,255.287L571.577,255.472L571.872,255.657L572.166,255.842L572.46,256.029L572.753,256.217L573.046,256.405L573.338,256.594L573.629,256.784L573.92,256.975L574.21,257.167L574.5,257.36L574.789,257.554L575.077,257.748L575.365,257.943L575.652,258.139L575.938,258.336L576.224,258.534L576.51,258.733L576.794,258.932L577.078,259.132L577.362,259.333L577.644,259.535L577.926,259.738L578.208,259.942L578.489,260.146L578.769,260.351L579.048,260.557L579.327,260.764L579.606,260.972L579.883,261.18L580.16,261.39L580.436,261.6L580.712,261.811L580.987,262.022L581.261,262.235L581.535,262.448L581.808,262.662L582.081,262.877L582.352,263.093L582.623,263.31L582.894,263.527L583.164,263.745L583.433,263.964L583.701,264.184L583.969,264.404L584.236,264.626L584.502,264.848L584.768,265.071L585.033,265.294L585.297,265.519L585.561,265.744L585.824,265.97L586.086,266.197L586.348,266.424L586.609,266.653L586.869,266.882L587.128,267.112L587.387,267.342L587.645,267.574L587.903,267.806L588.16,268.039L588.416,268.272L588.671,268.507L588.926,268.742L589.18,268.978L589.433,269.215L589.685,269.452L589.937,269.69L590.188,269.929L590.438,270.169L590.688,270.409L590.937,270.651L591.185,270.893L591.433,271.135L591.68,271.379L591.926,271.623L592.171,271.868L592.415,272.113L592.659,272.359L592.902,272.606L593.145,272.854L593.386,273.103L593.627,273.352L593.867,273.602L594.107,273.852L594.345,274.104L594.583,274.356L594.821,274.609L595.057,274.862L595.293,275.116L595.528,275.371L595.762,275.627L595.995,275.883L596.228,276.14L596.46,276.398L596.691,276.656L596.921,276.916L597.151,277.175L597.38,277.436L597.608,277.697L597.835,277.959L598.062,278.222L598.287,278.485L598.512,278.749L598.736,279.014L598.96,279.279L599.183,279.545L599.404,279.812L599.625,280.079L599.846,280.347L600.065,280.616L600.284,280.885L600.502,281.155L600.719,281.426L600.935,281.697L601.151,281.969L601.365,282.242L601.579,282.515L601.792,282.789L602.005,283.064L602.216,283.339L602.427,283.615L602.637,283.892L602.846,284.169L603.054,284.447L603.262,284.726L603.468,285.005L603.674,285.285L603.879,285.565L604.083,285.846L604.287,286.128L604.489,286.411L604.691,286.694L604.892,286.977L605.092,287.262L605.291,287.547L605.489,287.832L605.687,288.118L605.884,288.405L606.079,288.692L606.274,288.981L606.469,289.269L606.662,289.558L606.854,289.848L607.046,290.139L607.237,290.43L607.427,290.722L607.616,291.014L607.804,291.307L607.991,291.601L608.178,291.895L608.363,292.189L608.548,292.485L608.732,292.781L608.915,293.077L609.097,293.374L609.279,293.672L609.459,293.97L609.639,294.269L609.817,294.569L609.995,294.869L610.172,295.169L610.348,295.471L610.523,295.772L610.698,296.075L610.871,296.378L611.043,296.681L611.215,296.985L611.386,297.29L611.556,297.595L611.725,297.901L611.893,298.207L612.06,298.514L612.226,298.822L612.391,299.13L612.556,299.438L612.719,299.748L612.882,300.057L613.044,300.368L613.204,300.678L613.364,300.99L613.523,301.302L613.681,301.614L613.839,301.927L613.995,302.241L614.15,302.555L614.304,302.869L614.458,303.184L614.61,303.5L614.762,303.816L614.913,304.133L615.062,304.45L615.211,304.768L615.359,305.086L615.506,305.405L615.652,305.725L615.797,306.045L615.941,306.365L616.084,306.686L616.227,307.007L616.368,307.329L616.508,307.652L616.648,307.975L616.786,308.298L616.923,308.622L617.06,308.947L617.195,309.272L617.33,309.597L617.464,309.923L617.596,310.25L617.728,310.576L617.859,310.904L617.989,311.232L618.117,311.56L618.245,311.889L618.372,312.219L618.498,312.549L618.623,312.879L618.747,313.21L618.87,313.541L618.991,313.873L619.112,314.205L619.232,314.538L619.351,314.871L619.469,315.205L619.586,315.539L619.702,315.874L619.817,316.209L619.931,316.545L620.044,316.881L620.156,317.217L620.267,317.554L620.377,317.892L620.486,318.229L620.594,318.568L620.701,318.907L620.807,319.246L620.912,319.585L621.016,319.926L621.119,320.266L621.221,320.607L621.322,320.949L621.422,321.29L621.521,321.633L621.618,321.975L621.715,322.319L621.811,322.662L621.906,323.006L621.999,323.351L622.092,323.696L622.184,324.041L622.274,324.387L622.364,324.733L622.452,325.079L622.54,325.426L622.626,325.774L622.711,326.122L622.796,326.47L622.879,326.819L622.961,327.168L623.042,327.517L623.122,327.867L623.202,328.217L623.28,328.568L623.356,328.919L623.432,329.27L623.507,329.622L623.581,329.975L623.653,330.327L623.725,330.68L623.796,331.034L623.865,331.387L623.933,331.742L624.001,332.096L624.067,332.451L624.132,332.807L624.196,333.162L624.259,333.518L624.321,333.875L624.382,334.232L624.441,334.589L624.5,334.946L624.557,335.304L624.614,335.663L624.669,336.021L624.723,336.38L624.777,336.74L624.829,337.1L624.879,337.46L624.929,337.82L624.978,338.181L625.026,338.542L625.072,338.904L625.117,339.266L625.162,339.628L625.205,339.99L625.247,340.353L625.288,340.716L625.328,341.08L625.366,341.444L625.404,341.808L625.44,342.173L625.475,342.538L625.51,342.903L625.543,343.269L625.574,343.634L625.605,344.001L625.635,344.367L625.663,344.734L625.691,345.101L625.717,345.469L625.742,345.837L625.766,346.205L625.788,346.573L625.81,346.942L625.83,347.311L625.85,347.68L625.868,348.05L625.885,348.42L625.901,348.79L625.915,349.161L625.929,349.532L625.941,349.903L625.952,350.275L625.962,350.646L625.971,351.018L625.979,351.391L625.985,351.763L625.991,352.136L625.995,352.509L625.998,352.883L625.999,353.257L626,353.631L625.999,354.005L625.998,354.379L625.995,354.752L625.991,355.125L625.985,355.498L625.979,355.871L625.971,356.243L625.962,356.615L625.952,356.987L625.941,357.358L625.929,357.73L625.915,358.101L625.901,358.471L625.885,358.841L625.868,359.211L625.85,359.581L625.83,359.95L625.81,360.32L625.788,360.688L625.766,361.057L625.742,361.425L625.717,361.793L625.691,362.16L625.663,362.527L625.635,362.894L625.605,363.261L625.574,363.627L625.543,363.993L625.51,364.359L625.475,364.724L625.44,365.089L625.404,365.453L625.366,365.818L625.328,366.182L625.288,366.545L625.247,366.908L625.205,367.271L625.162,367.634L625.117,367.996L625.072,368.358L625.026,368.719L624.978,369.081L624.929,369.441L624.879,369.802L624.829,370.162L624.777,370.522L624.723,370.881L624.669,371.24L624.614,371.599L624.557,371.957L624.5,372.315L624.441,372.673L624.382,373.03L624.321,373.387L624.259,373.743L624.196,374.099L624.132,374.455L624.067,374.81L624.001,375.165L623.933,375.52L623.865,375.874L623.796,376.228L623.725,376.581L623.653,376.934L623.581,377.287L623.507,377.639L623.432,377.991L623.356,378.343L623.28,378.694L623.202,379.044L623.122,379.395L623.042,379.744L622.961,380.094L622.879,380.443L622.796,380.792L622.711,381.14L622.626,381.488L622.54,381.835L622.452,382.182L622.364,382.529L622.274,382.875L622.184,383.221L622.092,383.566L621.999,383.911L621.906,384.255L621.811,384.599L621.715,384.943L621.618,385.286L621.521,385.629L621.422,385.971L621.322,386.313L621.221,386.654L621.119,386.995L621.016,387.336L620.912,387.676L620.807,388.016L620.701,388.355L620.594,388.694L620.486,389.032L620.377,389.37L620.267,389.707L620.156,390.044L620.044,390.381L619.931,390.717L619.817,391.052L619.702,391.388L619.586,391.722L619.469,392.056L619.351,392.39L619.232,392.723L619.112,393.056L618.991,393.388L618.87,393.72L618.747,394.052L618.623,394.383L618.498,394.713L618.372,395.043L618.245,395.372L618.117,395.701L617.989,396.03L617.859,396.358L617.728,396.685L617.596,397.012L617.464,397.339L617.33,397.664L617.195,397.99L617.06,398.315L616.923,398.639L616.786,398.963L616.648,399.287L616.508,399.61L616.368,399.932L616.227,400.254L616.084,400.576L615.941,400.897L615.797,401.217L615.652,401.537L615.506,401.856L615.359,402.175L615.211,402.493L615.062,402.811L614.913,403.129L614.762,403.445L614.61,403.761L614.458,404.077L614.304,404.392L614.15,404.707L613.995,405.021L613.839,405.334L613.681,405.647L613.523,405.96L613.364,406.272L613.204,406.583L613.044,406.894L612.882,407.204L612.719,407.514L612.556,407.823L612.391,408.132L612.226,408.44L612.06,408.747L611.893,409.054L611.725,409.361L611.556,409.666L611.386,409.972L611.215,410.276L611.043,410.58L610.871,410.884L610.698,411.187L610.523,411.489L610.348,411.791L610.172,412.092L609.995,412.393L609.817,412.693L609.639,412.992L609.459,413.291L609.279,413.589L609.097,413.887L608.915,414.184L608.732,414.481L608.548,414.777L608.363,415.072L608.178,415.367L607.991,415.661L607.804,415.955L607.616,416.247L607.427,416.54L607.237,416.832L607.046,417.123L606.854,417.413L606.662,417.703L606.469,417.992L606.274,418.281L606.079,418.569L605.884,418.856L605.687,419.143L605.489,419.429L605.291,419.715L605.092,420L604.892,420.284L604.691,420.568L604.489,420.851L604.287,421.133L604.083,421.415L603.879,421.696L603.674,421.977L603.468,422.257L603.262,422.536L603.054,422.814L602.846,423.092L602.637,423.37L602.427,423.646L602.216,423.922L602.005,424.198L601.792,424.472L601.579,424.746L601.365,425.02L601.151,425.292L600.935,425.564L600.719,425.836L600.502,426.106L600.284,426.377L600.065,426.646L599.846,426.915L599.625,427.183L599.404,427.45L599.183,427.717L598.96,427.983L598.736,428.248L598.512,428.513L598.287,428.777L598.062,429.04L597.835,429.302L597.608,429.564L597.38,429.826L597.151,430.086L596.921,430.346L596.691,430.605L596.46,430.863L596.228,431.121L595.995,431.378L595.762,431.635L595.528,431.89L595.293,432.145L595.057,432.399L594.821,432.653L594.583,432.906L594.345,433.158L594.107,433.409L593.867,433.66L593.627,433.91L593.386,434.159L593.145,434.407L592.902,434.655L592.659,434.902L592.415,435.148L592.171,435.394L591.926,435.639L591.68,435.883L591.433,436.126L591.185,436.369L590.937,436.611L590.688,436.852L590.438,437.093L590.188,437.332L589.937,437.571L589.685,437.809L589.433,438.047L589.18,438.283L588.926,438.519L588.671,438.755L588.416,438.989L588.16,439.223L587.903,439.456L587.645,439.688L587.387,439.919L587.128,440.15L586.869,440.38L586.609,440.609L586.348,440.837L586.086,441.065L585.824,441.291L585.561,441.517L585.297,441.743L585.033,441.967L584.768,442.191L584.502,442.414L584.236,442.636L583.969,442.857L583.701,443.078L583.433,443.297L583.164,443.516L582.894,443.734L582.623,443.952L582.352,444.168L582.081,444.384L581.808,444.599L581.535,444.813L581.261,445.027L580.987,445.239L580.712,445.451L580.436,445.662L580.16,445.872L579.883,446.081L579.606,446.29L579.327,446.497L579.048,446.704L578.769,446.91L578.489,447.116L578.208,447.32L577.926,447.524L577.644,447.726L577.362,447.928L577.078,448.129L576.794,448.33L576.51,448.529L576.224,448.728L575.938,448.925L575.652,449.122L575.365,449.318L575.077,449.514L574.789,449.708L574.5,449.902L574.21,450.094L573.92,450.286L573.629,450.477L573.338,450.667L573.046,450.856L572.753,451.045L572.46,451.232L572.166,451.419L571.872,451.605L571.577,451.79L571.281,451.974L570.985,452.157L570.688,452.34L570.391,452.521L570.093,452.702L569.794,452.882L569.495,453.061L569.196,453.239L568.895,453.416L568.594,453.592L568.293,453.767L567.991,453.942L567.688,454.115L567.385,454.288L567.081,454.46L566.777,454.631L566.472,454.801L566.167,454.97L565.861,455.138L565.554,455.305L565.247,455.472L564.939,455.637L564.631,455.802L564.322,455.966L564.013,456.129L563.703,456.291L563.393,456.451L563.082,456.612L562.77,456.771L562.458,456.929L562.145,457.086L561.832,457.243L561.518,457.398L561.204,457.553L560.889,457.706L560.574,457.859L560.258,458.011L559.942,458.162L559.625,458.312L559.307,458.461L558.99,458.609L558.671,458.756L558.352,458.902L558.032,459.047L557.712,459.191L557.392,459.335L557.071,459.477L556.749,459.618L556.427,459.759L556.105,459.898L555.781,460.037L555.458,460.175L555.134,460.311L554.809,460.447L554.484,460.582L554.158,460.716L553.832,460.848L553.506,460.98L553.179,461.111L552.851,461.241L552.523,461.37L552.194,461.498L551.865,461.625L551.536,461.751L551.206,461.876L550.875,462L550.544,462.123L550.213,462.245L549.881,462.366L549.548,462.486L549.216,462.605L548.882,462.723L548.548,462.841L548.214,462.957L547.879,463.072L547.544,463.186L547.209,463.299L546.872,463.411L546.536,463.522L546.199,463.633L545.861,463.742L545.523,463.85L545.185,463.957L544.846,464.063L544.507,464.168L544.167,464.272L543.827,464.375L543.486,464.477L543.145,464.578L542.804,464.678L542.462,464.777L542.12,464.875L541.777,464.972L541.434,465.068L541.09,465.163L540.746,465.256L540.401,465.349L540.056,465.441L539.711,465.532L539.365,465.621L539.019,465.71L538.672,465.797L538.325,465.884L537.978,465.969L537.63,466.054L537.282,466.137L536.933,466.219L536.584,466.301L536.235,466.381L535.885,466.46L535.535,466.538L535.184,466.615L534.833,466.691L534.481,466.766L534.13,466.84L533.777,466.912L533.425,466.984L533.072,467.055L532.718,467.124L532.364,467.193L532.01,467.26L531.656,467.326L531.301,467.391L530.945,467.455L530.59,467.519L530.234,467.58L529.877,467.641L529.52,467.701L529.163,467.76L528.806,467.817L528.448,467.874L528.09,467.929L527.731,467.983L527.372,468.037L527.013,468.089L526.653,468.14L526.293,468.19L525.932,468.238L525.572,468.286L525.211,468.332L524.849,468.378L524.487,468.422L524.125,468.465L523.763,468.507L523.4,468.548L523.037,468.588L522.673,468.627L522.309,468.665L521.945,468.701L521.581,468.736L521.216,468.77L520.851,468.804L520.485,468.835L520.119,468.866L519.753,468.896L519.387,468.924L519.02,468.952L518.653,468.978L518.285,469.003L517.918,469.027L517.55,469.05L517.181,469.071L516.813,469.092L516.444,469.111L516.074,469.129L515.705,469.146L515.335,469.162L514.965,469.177L514.594,469.19L514.224,469.203L513.853,469.214L513.481,469.224L513.11,469.233L512.738,469.24L512.365,469.247L511.993,469.252L511.62,469.256L511.247,469.259L510.874,469.261L510.5,469.262L510.126,469.261L509.753,469.259L509.38,469.256L509.007,469.252L508.635,469.247L508.263,469.24L507.891,469.233L507.519,469.224L507.148,469.214L506.777,469.203L506.406,469.19L506.035,469.177L505.665,469.162L505.295,469.146L504.926,469.129L504.556,469.111L504.187,469.092L503.819,469.071L503.45,469.05L503.082,469.027L502.715,469.003L502.347,468.978L501.98,468.952L501.613,468.924L501.247,468.896L500.881,468.866L500.515,468.835L500.15,468.804L499.784,468.77L499.42,468.736L499.055,468.701L498.691,468.665L498.327,468.627L497.964,468.588L497.6,468.548L497.238,468.507L496.875,468.465L496.513,468.422L496.151,468.378L495.79,468.332L495.428,468.286L495.068,468.238L494.707,468.19L494.347,468.14L493.988,468.089L493.628,468.037L493.269,467.983L492.911,467.929L492.552,467.874L492.194,467.817L491.837,467.76L491.48,467.701L491.123,467.641L490.766,467.58L490.41,467.519L490.055,467.455L489.699,467.391L489.344,467.326L488.99,467.26L488.636,467.193L488.282,467.124L487.928,467.055L487.575,466.984L487.223,466.912L486.871,466.84L486.519,466.766L486.167,466.691L485.816,466.615L485.465,466.538L485.115,466.46L484.765,466.381L484.416,466.301L484.067,466.219L483.718,466.137L483.37,466.054L483.022,465.969L482.675,465.884L482.328,465.797L481.981,465.71L481.635,465.621L481.289,465.532L480.944,465.441L480.599,465.349L480.254,465.256L479.91,465.163L479.567,465.068L479.223,464.972L478.881,464.875L478.538,464.777L478.196,464.678L477.855,464.578L477.514,464.477L477.173,464.375L476.833,464.272L476.493,464.168L476.154,464.063L475.815,463.957L475.477,463.85L475.139,463.742L474.801,463.633L474.464,463.522L474.128,463.411L473.792,463.299L473.456,463.186L473.121,463.072L472.786,462.957L472.452,462.841L472.118,462.723L471.784,462.605L471.452,462.486L471.119,462.366L470.787,462.245L470.456,462.123L470.125,462L469.794,461.876L469.464,461.751L469.135,461.625L468.806,461.498L468.477,461.37L468.149,461.241L467.822,461.111L467.494,460.98L467.168,460.848L466.842,460.716L466.516,460.582L466.191,460.447L465.866,460.311L465.542,460.175L465.219,460.037L464.896,459.898L464.573,459.759L464.251,459.618L463.929,459.477L463.608,459.335L463.288,459.191L462.968,459.047L462.648,458.902L462.329,458.756L462.011,458.609L461.693,458.461L461.375,458.312L461.058,458.162L460.742,458.011L460.426,457.859L460.111,457.706L459.796,457.553L459.482,457.398L459.168,457.243L458.855,457.086L458.542,456.929L458.23,456.771L457.919,456.612L457.608,456.451L457.297,456.291L456.987,456.129L456.678,455.966L456.369,455.802L456.061,455.637L455.753,455.472L455.446,455.305L455.139,455.138L454.833,454.97L454.528,454.801L454.223,454.631L453.919,454.46L453.615,454.288L453.312,454.115L453.009,453.942L452.707,453.767L452.406,453.592L452.105,453.416L451.804,453.239L451.505,453.061L451.206,452.882L450.907,452.702L450.609,452.521L450.312,452.34L450.015,452.157L449.719,451.974L449.423,451.79L449.128,451.605L448.834,451.419L448.54,451.232L448.247,451.045L447.954,450.856L447.662,450.667L447.371,450.477L447.08,450.286L446.79,450.094L446.5,449.902L446.211,449.708L445.923,449.514L445.635,449.318L445.348,449.122L445.062,448.925L444.776,448.728L444.491,448.529L444.206,448.33L443.922,448.129L443.639,447.928L443.356,447.726L443.074,447.524L442.792,447.32L442.511,447.116L442.231,446.91L441.952,446.704L441.673,446.497L441.395,446.29L441.117,446.081L440.84,445.872L440.564,445.662L440.288,445.451L440.013,445.239L439.739,445.027L439.465,444.813L439.192,444.599L438.919,444.384L438.648,444.168L438.377,443.952L438.106,443.734L437.837,443.516L437.567,443.297L437.299,443.078L437.031,442.857L436.764,442.636L436.498,442.414L436.232,442.191L435.967,441.967L435.703,441.743L435.439,441.517L435.176,441.291L434.914,441.065L434.652,440.837L434.391,440.609L434.131,440.38L433.872,440.15L433.613,439.919L433.355,439.688L433.097,439.456L432.84,439.223L432.584,438.989L432.329,438.755L432.074,438.519L431.821,438.283L431.567,438.047L431.315,437.809L431.063,437.571L430.812,437.332L430.562,437.093L430.312,436.852L430.063,436.611L429.815,436.369L429.567,436.126L429.321,435.883L429.075,435.639L428.829,435.394L428.585,435.148L428.341,434.902L428.098,434.655L427.855,434.407L427.614,434.159L427.373,433.91L427.133,433.66L426.893,433.409L426.655,433.158L426.417,432.906L426.179,432.653L425.943,432.399L425.707,432.145L425.472,431.89L425.238,431.635L425.005,431.378L424.772,431.121L424.54,430.863L424.309,430.605L424.079,430.346L423.849,430.086L423.62,429.826L423.392,429.564L423.165,429.302L422.939,429.04L422.713,428.777L422.488,428.513L422.264,428.248L422.04,427.983L421.818,427.717L421.596,427.45L421.375,427.183L421.154,426.915L420.935,426.646L420.716,426.377L420.498,426.106L420.281,425.836L420.065,425.564L419.849,425.292L419.635,425.02L419.421,424.746L419.208,424.472L418.995,424.198L418.784,423.922L418.573,423.646L418.363,423.37L418.154,423.092L417.946,422.814L417.738,422.536L417.532,422.257L417.326,421.977L417.121,421.696L416.917,421.415L416.713,421.133L416.511,420.851L416.309,420.568L416.108,420.284L415.908,420L415.709,419.715L415.511,419.429L415.313,419.143L415.117,418.856L414.921,418.569L414.726,418.281L414.531,417.992L414.338,417.703L414.146,417.413L413.954,417.123L413.763,416.832L413.573,416.54L413.384,416.247L413.196,415.955L413.009,415.661L412.822,415.367L412.637,415.072L412.452,414.777L412.268,414.481L412.085,414.184L411.903,413.887L411.721,413.589L411.541,413.291L411.361,412.992L411.183,412.693L411.005,412.393L410.828,412.092L410.652,411.791L410.477,411.489L410.302,411.187L410.129,410.884L409.957,410.58L409.785,410.276L409.614,409.972L409.444,409.666L409.275,409.361L409.107,409.054L408.94,408.747L408.774,408.44L408.609,408.132L408.444,407.823L408.281,407.514L408.118,407.204L407.956,406.894L407.796,406.583L407.636,406.272L407.477,405.96L407.319,405.647L407.162,405.334L407.005,405.021L406.85,404.707L406.696,404.392L406.542,404.077L406.39,403.761L406.238,403.445L406.087,403.129L405.938,402.811L405.789,402.493L405.641,402.175L405.494,401.856L405.348,401.537L405.203,401.217L405.059,400.897L404.916,400.576L404.773,400.254L404.632,399.932L404.492,399.61L404.353,399.287L404.214,398.963L404.077,398.639L403.94,398.315L403.805,397.99L403.67,397.664L403.536,397.339L403.404,397.012L403.272,396.685L403.141,396.358L403.012,396.03L402.883,395.701L402.755,395.372L402.628,395.043L402.502,394.713L402.377,394.383L402.253,394.052L402.131,393.72L402.009,393.388L401.888,393.056L401.768,392.723L401.649,392.39L401.531,392.056L401.414,391.722L401.298,391.388L401.183,391.052L401.069,390.717L400.956,390.381L400.844,390.044L400.733,389.707L400.623,389.37L400.514,389.032L400.406,388.694L400.299,388.355L400.193,388.016L400.088,387.676L399.984,387.336L399.881,386.995L399.779,386.654L399.678,386.313L399.578,385.971L399.479,385.629L399.382,385.286L399.285,384.943L399.189,384.599L399.094,384.255L399.001,383.911L398.908,383.566L398.816,383.221L398.726,382.875L398.636,382.529L398.548,382.182L398.46,381.835L398.374,381.488L398.289,381.14L398.204,380.792L398.121,380.443L398.039,380.094L397.958,379.744L397.878,379.395L397.799,379.044L397.721,378.694L397.644,378.343L397.568,377.991L397.493,377.639L397.419,377.287L397.347,376.934L397.275,376.581L397.205,376.228L397.135,375.874L397.067,375.52L396.999,375.165L396.933,374.81L396.868,374.455L396.804,374.099L396.741,373.743L396.679,373.387L396.618,373.03L396.559,372.673L396.5,372.315L396.443,371.957L396.386,371.599L396.331,371.24L396.277,370.881L396.224,370.522L396.172,370.162L396.121,369.802L396.071,369.441L396.022,369.081L395.975,368.719L395.928,368.358L395.883,367.996L395.838,367.634L395.795,367.271L395.753,366.908L395.712,366.545L395.673,366.182L395.634,365.818L395.596,365.453L395.56,365.089L395.525,364.724L395.491,364.359L395.458,363.993L395.426,363.627L395.395,363.261L395.365,362.894L395.337,362.527L395.31,362.16L395.283,361.793L395.258,361.425L395.234,361.057L395.212,360.688L395.19,360.32L395.17,359.95L395.15,359.581L395.132,359.211L395.115,358.841L395.099,358.471L395.085,358.101L395.071,357.73L395.059,357.358L395.048,356.987L395.038,356.615L395.029,356.243L395.021,355.871L395.015,355.498L395.01,355.125L395.005,354.752L395.002,354.379L395.001,354.005L395,353.631L395.001,353.257L395.002,352.883L395.005,352.509L395.01,352.136L395.015,351.763L395.021,351.391L395.029,351.018L395.038,350.646L395.048,350.275L395.059,349.903L395.071,349.532L395.085,349.161L395.099,348.79L395.115,348.42L395.132,348.05L395.15,347.68L395.17,347.311L395.19,346.942L395.212,346.573L395.234,346.205L395.258,345.837L395.283,345.469L395.31,345.101L395.337,344.734L395.365,344.367L395.395,344.001L395.426,343.634L395.458,343.269L395.491,342.903L395.525,342.538L395.56,342.173L395.596,341.808L395.634,341.444L395.673,341.08L395.712,340.716L395.753,340.353L395.795,339.99L395.838,339.628L395.883,339.266L395.928,338.904L395.975,338.542L396.022,338.181L396.071,337.82L396.121,337.46L396.172,337.1L396.224,336.74L396.277,336.38L396.331,336.021L396.386,335.663L396.443,335.304L396.5,334.946L396.559,334.589L396.618,334.232L396.679,333.875L396.741,333.518L396.804,333.162L396.868,332.807L396.933,332.451L396.999,332.096L397.067,331.742L397.135,331.387L397.205,331.034L397.275,330.68L397.347,330.327L397.419,329.975L397.493,329.622L397.568,329.27L397.644,328.919L397.721,328.568L397.799,328.217L397.878,327.867L397.958,327.517L398.039,327.168L398.121,326.819L398.204,326.47L398.289,326.122L398.374,325.774L398.46,325.426L398.548,325.079L398.636,324.733L398.726,324.387L398.816,324.041L398.908,323.696L399.001,323.351L399.094,323.006L399.189,322.662L399.285,322.319L399.382,321.975L399.479,321.633L399.578,321.29L399.678,320.949L399.779,320.607L399.881,320.266L399.984,319.926L400.088,319.585L400.193,319.246L400.299,318.907L400.406,318.568L400.514,318.229L400.623,317.892L400.733,317.554L400.844,317.217L400.956,316.881L401.069,316.545L401.183,316.209L401.298,315.874L401.414,315.539L401.531,315.205L401.649,314.871L401.768,314.538L401.888,314.205L402.009,313.873L402.131,313.541L402.253,313.21L402.377,312.879L402.502,312.549L402.628,312.219L402.755,311.889L402.883,311.56L403.012,311.232L403.141,310.904L403.272,310.576L403.404,310.25L403.536,309.923L403.67,309.597L403.805,309.272L403.94,308.947L404.077,308.622L404.214,308.298L404.353,307.975L404.492,307.652L404.632,307.329L404.773,307.007L404.916,306.686L405.059,306.365L405.203,306.045L405.348,305.725L405.494,305.405L405.641,305.086L405.789,304.768L405.938,304.45L406.087,304.133L406.238,303.816L406.39,303.5L406.542,303.184L406.696,302.869L406.85,302.555L407.005,302.241L407.162,301.927L407.319,301.614L407.477,301.302L407.636,300.99L407.796,300.678L407.956,300.368L408.118,300.057L408.281,299.748L408.444,299.438L408.609,299.13L408.774,298.822L408.94,298.514L409.107,298.207L409.275,297.901L409.444,297.595L409.614,297.29L409.785,296.985L409.957,296.681L410.129,296.378L410.302,296.075L410.477,295.772L410.652,295.471L410.828,295.169L411.005,294.869L411.183,294.569L411.361,294.269L411.541,293.97L411.721,293.672L411.903,293.374L412.085,293.077L412.268,292.781L412.452,292.485L412.637,292.189L412.822,291.895L413.009,291.601L413.196,291.307L413.384,291.014L413.573,290.722L413.763,290.43L413.954,290.139L414.146,289.848L414.338,289.558L414.531,289.269L414.726,288.981L414.921,288.692L415.117,288.405L415.313,288.118L415.511,287.832L415.709,287.547L415.908,287.262L416.108,286.977L416.309,286.694L416.511,286.411L416.713,286.128L416.917,285.846L417.121,285.565L417.326,285.285L417.532,285.005L417.738,284.726L417.946,284.447L418.154,284.169L418.363,283.892L418.573,283.615L418.784,283.339L418.995,283.064L419.208,282.789L419.421,282.515L419.635,282.242L419.849,281.969L420.065,281.697L420.281,281.426L420.498,281.155L420.716,280.885L420.935,280.616L421.154,280.347L421.375,280.079L421.596,279.812L421.818,279.545L422.04,279.279L422.264,279.014L422.488,278.749L422.713,278.485L422.939,278.222L423.165,277.959L423.392,277.697L423.62,277.436L423.849,277.175L424.079,276.916L424.309,276.656L424.54,276.398L424.772,276.14L425.005,275.883L425.238,275.627L425.472,275.371L425.707,275.116L425.943,274.862L426.179,274.609L426.417,274.356L426.655,274.104L426.893,273.852L427.133,273.602L427.373,273.352L427.614,273.103L427.855,272.854L428.098,272.606L428.341,272.359L428.585,272.113L428.829,271.868L429.075,271.623L429.321,271.379L429.567,271.135L429.815,270.893L430.063,270.651L430.312,270.409L430.562,270.169L430.812,269.929L431.063,269.69L431.315,269.452L431.567,269.215L431.821,268.978L432.074,268.742L432.329,268.507L432.584,268.272L432.84,268.039L433.097,267.806L433.355,267.574L433.613,267.342L433.872,267.112L434.131,266.882L434.391,266.653L434.652,266.424L434.914,266.197L435.176,265.97L435.439,265.744L435.703,265.519L435.967,265.294L436.232,265.071L436.498,264.848L436.764,264.626L437.031,264.404L437.299,264.184L437.567,263.964L437.837,263.745L438.106,263.527L438.377,263.31L438.648,263.093L438.919,262.877L439.192,262.662L439.465,262.448L439.739,262.235L440.013,262.022L440.288,261.811L440.564,261.6L440.84,261.39L441.117,261.18L441.395,260.972L441.673,260.764L441.952,260.557L442.231,260.351L442.511,260.146L442.792,259.942L443.074,259.738L443.356,259.535L443.639,259.333L443.922,259.132L444.206,258.932L444.491,258.733L444.776,258.534L445.062,258.336L445.348,258.139L445.635,257.943L445.923,257.748L446.211,257.554L446.5,257.36L446.79,257.167L447.08,256.975L447.371,256.784L447.662,256.594L447.954,256.405L448.247,256.217L448.54,256.029L448.834,255.842L449.128,255.657L449.423,255.472L449.719,255.287L450.015,255.104L450.312,254.922L450.609,254.74L450.907,254.56L451.206,254.38L451.505,254.201L451.804,254.023L452.105,253.846L452.406,253.67L452.707,253.494L453.009,253.32L453.312,253.146L453.615,252.973L453.919,252.802L454.223,252.631L454.528,252.461L454.833,252.292L455.139,252.123L455.446,251.956L455.753,251.79L456.061,251.624L456.369,251.459L456.678,251.296L456.987,251.133L457.297,250.971L457.608,250.81L457.919,250.65L458.23,250.491L458.542,250.333L458.855,250.175L459.168,250.019L459.482,249.863L459.796,249.709L460.111,249.555L460.426,249.402L460.742,249.251L461.058,249.1L461.375,248.95L461.693,248.801L462.011,248.653L462.329,248.506L462.648,248.36L462.968,248.214L463.288,248.07L463.608,247.927L463.929,247.785L464.251,247.643L464.573,247.503L464.896,247.363L465.219,247.224L465.542,247.087L465.866,246.95L466.191,246.815L466.516,246.68L466.842,246.546L467.168,246.413L467.494,246.281L467.822,246.15L468.149,246.021L468.477,245.892L468.806,245.764L469.135,245.637L469.464,245.511L469.794,245.386L470.125,245.262L470.456,245.139L470.787,245.016L471.119,244.895L471.452,244.775L471.784,244.656L472.118,244.538L472.452,244.421L472.786,244.305L473.121,244.19L473.456,244.076L473.792,243.962L474.128,243.85L474.464,243.739L474.801,243.629L475.139,243.52L475.477,243.412L475.815,243.305L476.154,243.199L476.493,243.093L476.833,242.989L477.173,242.886L477.514,242.784L477.855,242.683L478.196,242.583L478.538,242.484L478.881,242.387L479.223,242.29L479.567,242.194L479.91,242.099L480.254,242.005L480.599,241.912L480.944,241.821L481.289,241.73L481.635,241.64L481.981,241.552L482.328,241.464L482.675,241.378L483.022,241.292L483.37,241.208L483.718,241.125L484.067,241.042L484.416,240.961L484.765,240.881L485.115,240.802L485.465,240.724L485.816,240.647L486.167,240.571L486.519,240.496L486.871,240.422L487.223,240.349L487.575,240.278L487.928,240.207L488.282,240.137L488.636,240.069L488.99,240.002L489.344,239.935L489.699,239.87L490.055,239.806L490.41,239.743L490.766,239.681L491.123,239.62L491.48,239.56L491.837,239.502L492.194,239.444L492.552,239.388L492.911,239.332L493.269,239.278L493.628,239.225L493.988,239.173L494.347,239.122L494.707,239.072L495.068,239.023L495.428,238.976L495.79,238.929L496.151,238.884L496.513,238.839L496.875,238.796L497.238,238.754L497.6,238.713L497.964,238.673L498.327,238.635L498.691,238.597L499.055,238.561L499.42,238.525L499.784,238.491L500.15,238.458L500.515,238.426L500.881,238.395L501.247,238.366L501.613,238.337L501.98,238.31L502.347,238.284L502.715,238.259L503.082,238.235L503.45,238.212L503.819,238.19L504.187,238.17L504.556,238.15L504.926,238.132L505.295,238.115L505.665,238.1L506.035,238.085L506.406,238.071L506.777,238.059L507.148,238.048L507.519,238.038L507.891,238.029L508.263,238.021L508.635,238.015L509.007,238.009L509.38,238.005L509.753,238.002L510.126,238.001L510.5,238L510.874,238.001ZM510.151,245.891L509.803,245.892L509.455,245.895L509.107,245.899L508.76,245.904L508.413,245.91L508.066,245.917L507.719,245.925L507.373,245.935L507.027,245.945L506.681,245.957L506.335,245.969L505.99,245.983L505.645,245.998L505.301,246.013L504.956,246.03L504.612,246.048L504.269,246.067L503.925,246.088L503.582,246.109L503.239,246.131L502.897,246.154L502.555,246.179L502.213,246.204L501.871,246.231L501.53,246.259L501.189,246.287L500.848,246.317L500.508,246.348L500.168,246.38L499.828,246.413L499.489,246.447L499.15,246.482L498.811,246.518L498.473,246.555L498.135,246.593L497.797,246.632L497.459,246.672L497.122,246.714L496.786,246.756L496.449,246.799L496.113,246.844L495.777,246.889L495.442,246.936L495.107,246.983L494.772,247.032L494.438,247.081L494.104,247.132L493.77,247.183L493.436,247.236L493.103,247.289L492.771,247.344L492.438,247.4L492.106,247.456L491.775,247.514L491.444,247.573L491.113,247.633L490.782,247.693L490.452,247.755L490.122,247.818L489.793,247.882L489.463,247.946L489.135,248.012L488.806,248.079L488.478,248.146L488.151,248.215L487.823,248.285L487.496,248.356L487.17,248.427L486.844,248.5L486.518,248.574L486.192,248.648L485.867,248.724L485.543,248.801L485.218,248.878L484.895,248.957L484.571,249.036L484.248,249.117L483.925,249.199L483.603,249.281L483.281,249.364L482.959,249.449L482.638,249.534L482.317,249.621L481.997,249.708L481.677,249.796L481.358,249.886L481.038,249.976L480.72,250.067L480.401,250.159L480.083,250.252L479.766,250.346L479.449,250.441L479.132,250.537L478.816,250.634L478.5,250.732L478.184,250.831L477.869,250.93L477.554,251.031L477.24,251.133L476.926,251.235L476.613,251.339L476.3,251.443L475.988,251.548L475.675,251.655L475.364,251.762L475.052,251.87L474.742,251.979L474.431,252.089L474.121,252.2L473.812,252.312L473.503,252.424L473.194,252.538L472.886,252.653L472.578,252.768L472.271,252.885L471.964,253.002L471.658,253.12L471.352,253.239L471.046,253.359L470.741,253.48L470.437,253.602L470.133,253.725L469.829,253.849L469.526,253.973L469.223,254.099L468.921,254.225L468.619,254.352L468.317,254.481L468.017,254.61L467.716,254.739L467.416,254.87L467.117,255.002L466.818,255.135L466.519,255.268L466.221,255.402L465.924,255.538L465.626,255.674L465.33,255.811L465.034,255.949L464.738,256.087L464.443,256.227L464.148,256.367L463.854,256.509L463.56,256.651L463.267,256.794L462.975,256.938L462.682,257.083L462.391,257.229L462.099,257.375L461.809,257.522L461.519,257.671L461.229,257.82L460.94,257.97L460.651,258.121L460.363,258.272L460.075,258.425L459.788,258.578L459.502,258.732L459.215,258.887L458.93,259.043L458.645,259.2L458.36,259.357L458.076,259.516L457.793,259.675L457.51,259.835L457.227,259.996L456.946,260.158L456.664,260.32L456.383,260.484L456.103,260.648L455.823,260.813L455.544,260.979L455.265,261.145L454.987,261.313L454.71,261.481L454.432,261.65L454.156,261.82L453.88,261.991L453.605,262.162L453.33,262.335L453.055,262.508L452.782,262.682L452.509,262.857L452.236,263.032L451.964,263.209L451.692,263.386L451.421,263.564L451.151,263.742L450.881,263.922L450.612,264.102L450.343,264.283L450.075,264.465L449.808,264.648L449.541,264.832L449.274,265.016L449.008,265.201L448.743,265.387L448.479,265.573L448.215,265.761L447.951,265.949L447.688,266.138L447.426,266.328L447.164,266.518L446.903,266.709L446.643,266.901L446.383,267.094L446.123,267.288L445.865,267.482L445.606,267.677L445.349,267.873L445.092,268.07L444.836,268.267L444.58,268.465L444.325,268.664L444.07,268.863L443.817,269.064L443.563,269.265L443.311,269.467L443.059,269.669L442.807,269.873L442.556,270.077L442.306,270.281L442.057,270.487L441.808,270.693L441.56,270.9L441.312,271.108L441.065,271.317L440.819,271.526L440.573,271.736L440.328,271.946L440.083,272.158L439.839,272.37L439.596,272.583L439.354,272.796L439.112,273.01L438.87,273.225L438.63,273.441L438.39,273.657L438.151,273.875L437.912,274.092L437.674,274.311L437.436,274.53L437.2,274.75L436.964,274.971L436.728,275.192L436.494,275.414L436.26,275.637L436.026,275.86L435.794,276.084L435.562,276.309L435.33,276.535L435.099,276.761L434.869,276.988L434.64,277.215L434.411,277.443L434.183,277.672L433.956,277.902L433.73,278.132L433.504,278.363L433.278,278.595L433.054,278.827L432.83,279.06L432.607,279.294L432.384,279.528L432.163,279.763L431.942,279.999L431.721,280.235L431.501,280.472L431.282,280.71L431.064,280.948L430.847,281.187L430.63,281.426L430.414,281.667L430.198,281.907L429.983,282.149L429.769,282.391L429.556,282.634L429.343,282.878L429.132,283.122L428.92,283.366L428.71,283.612L428.5,283.858L428.291,284.105L428.083,284.352L427.876,284.6L427.669,284.848L427.463,285.098L427.257,285.347L427.053,285.598L426.849,285.849L426.646,286.101L426.444,286.353L426.242,286.606L426.041,286.859L425.841,287.114L425.642,287.368L425.443,287.624L425.245,287.88L425.048,288.136L424.851,288.394L424.656,288.651L424.461,288.91L424.267,289.169L424.074,289.429L423.881,289.689L423.689,289.95L423.498,290.211L423.308,290.473L423.118,290.736L422.93,290.999L422.742,291.263L422.554,291.527L422.368,291.792L422.182,292.058L421.997,292.324L421.813,292.59L421.63,292.858L421.448,293.126L421.266,293.394L421.085,293.663L420.905,293.933L420.725,294.203L420.547,294.473L420.369,294.745L420.192,295.017L420.016,295.289L419.84,295.562L419.666,295.835L419.492,296.11L419.319,296.384L419.147,296.659L418.976,296.935L418.805,297.211L418.635,297.488L418.466,297.766L418.298,298.044L418.131,298.322L417.964,298.601L417.799,298.881L417.634,299.161L417.47,299.442L417.307,299.723L417.144,300.004L416.983,300.287L416.822,300.57L416.662,300.853L416.503,301.137L416.345,301.421L416.187,301.706L416.031,301.991L415.875,302.277L415.72,302.564L415.566,302.851L415.413,303.138L415.261,303.426L415.109,303.715L414.959,304.004L414.809,304.293L414.66,304.583L414.512,304.874L414.364,305.165L414.218,305.457L414.073,305.749L413.928,306.041L413.784,306.334L413.641,306.628L413.499,306.922L413.358,307.216L413.217,307.511L413.078,307.807L412.939,308.103L412.802,308.4L412.665,308.697L412.529,308.994L412.394,309.292L412.259,309.59L412.126,309.889L411.994,310.189L411.862,310.489L411.731,310.789L411.602,311.09L411.473,311.391L411.345,311.693L411.217,311.995L411.091,312.298L410.966,312.601L410.841,312.904L410.718,313.208L410.595,313.513L410.473,313.818L410.353,314.123L410.233,314.429L410.114,314.736L409.996,315.042L409.878,315.35L409.762,315.657L409.647,315.966L409.532,316.274L409.419,316.583L409.306,316.893L409.194,317.202L409.083,317.513L408.973,317.824L408.865,318.135L408.756,318.447L408.649,318.759L408.543,319.071L408.438,319.384L408.334,319.698L408.23,320.011L408.128,320.325L408.026,320.64L407.926,320.955L407.826,321.271L407.727,321.587L407.63,321.903L407.533,322.22L407.437,322.537L407.342,322.854L407.248,323.172L407.155,323.491L407.063,323.81L406.972,324.129L406.882,324.448L406.793,324.768L406.705,325.089L406.617,325.41L406.531,325.731L406.446,326.052L406.361,326.374L406.278,326.697L406.196,327.019L406.114,327.343L406.034,327.666L405.954,327.99L405.876,328.315L405.798,328.639L405.722,328.964L405.646,329.29L405.571,329.616L405.498,329.942L405.425,330.269L405.353,330.596L405.283,330.923L405.213,331.251L405.144,331.579L405.077,331.907L405.01,332.236L404.944,332.565L404.88,332.895L404.816,333.225L404.753,333.555L404.692,333.886L404.631,334.217L404.571,334.548L404.513,334.88L404.455,335.212L404.398,335.544L404.343,335.877L404.288,336.21L404.235,336.544L404.182,336.878L404.131,337.212L404.08,337.546L404.031,337.881L403.982,338.216L403.935,338.552L403.888,338.888L403.843,339.224L403.799,339.561L403.755,339.897L403.713,340.235L403.672,340.572L403.631,340.91L403.592,341.248L403.554,341.587L403.517,341.926L403.481,342.265L403.446,342.604L403.412,342.944L403.379,343.284L403.347,343.625L403.317,343.966L403.287,344.307L403.258,344.648L403.231,344.99L403.204,345.332L403.179,345.674L403.154,346.017L403.131,346.36L403.109,346.703L403.087,347.047L403.067,347.391L403.048,347.735L403.03,348.079L403.013,348.424L402.998,348.769L402.983,349.115L402.969,349.46L402.957,349.806L402.945,350.153L402.935,350.499L402.925,350.846L402.917,351.193L402.91,351.54L402.904,351.888L402.899,352.236L402.895,352.584L402.892,352.933L402.891,353.282L402.89,353.631L402.891,353.98L402.892,354.329L402.895,354.677L402.899,355.025L402.904,355.373L402.91,355.721L402.917,356.069L402.925,356.416L402.935,356.762L402.945,357.109L402.957,357.455L402.969,357.801L402.983,358.147L402.998,358.492L403.013,358.837L403.03,359.182L403.048,359.527L403.067,359.871L403.087,360.215L403.109,360.558L403.131,360.902L403.154,361.245L403.179,361.587L403.204,361.929L403.231,362.272L403.258,362.613L403.287,362.955L403.317,363.296L403.347,363.637L403.379,363.977L403.412,364.317L403.446,364.657L403.481,364.997L403.517,365.336L403.554,365.675L403.592,366.013L403.631,366.351L403.672,366.689L403.713,367.027L403.755,367.364L403.799,367.701L403.843,368.038L403.888,368.374L403.935,368.71L403.982,369.045L404.031,369.38L404.08,369.715L404.131,370.05L404.182,370.384L404.235,370.718L404.288,371.051L404.343,371.384L404.398,371.717L404.455,372.05L404.513,372.382L404.571,372.713L404.631,373.045L404.692,373.376L404.753,373.706L404.816,374.037L404.88,374.367L404.944,374.696L405.01,375.026L405.077,375.354L405.144,375.683L405.213,376.011L405.283,376.339L405.353,376.666L405.425,376.993L405.498,377.32L405.571,377.646L405.646,377.972L405.722,378.297L405.798,378.622L405.876,378.947L405.954,379.271L406.034,379.595L406.114,379.919L406.196,380.242L406.278,380.565L406.361,380.887L406.446,381.209L406.531,381.531L406.617,381.852L406.705,382.173L406.793,382.493L406.882,382.813L406.972,383.133L407.063,383.452L407.155,383.771L407.248,384.089L407.342,384.407L407.437,384.725L407.533,385.042L407.63,385.359L407.727,385.675L407.826,385.991L407.926,386.306L408.026,386.621L408.128,386.936L408.23,387.25L408.334,387.564L408.438,387.877L408.543,388.19L408.649,388.503L408.756,388.815L408.865,389.127L408.974,389.438L409.083,389.749L409.194,390.059L409.306,390.369L409.419,390.678L409.532,390.987L409.647,391.296L409.762,391.604L409.878,391.912L409.996,392.219L410.114,392.526L410.233,392.832L410.353,393.138L410.473,393.444L410.595,393.749L410.718,394.053L410.841,394.357L410.966,394.661L411.091,394.964L411.217,395.267L411.345,395.569L411.473,395.87L411.602,396.172L411.731,396.473L411.862,396.773L411.994,397.073L412.126,397.372L412.259,397.671L412.394,397.97L412.529,398.268L412.665,398.565L412.802,398.862L412.939,399.159L413.078,399.455L413.217,399.75L413.358,400.045L413.499,400.34L413.641,400.634L413.784,400.927L413.928,401.22L414.072,401.513L414.218,401.805L414.364,402.097L414.512,402.388L414.66,402.678L414.809,402.968L414.959,403.258L415.109,403.547L415.261,403.835L415.413,404.123L415.566,404.411L415.72,404.698L415.875,404.984L416.031,405.27L416.187,405.556L416.345,405.84L416.503,406.125L416.662,406.409L416.822,406.692L416.983,406.975L417.144,407.257L417.307,407.539L417.47,407.82L417.634,408.101L417.799,408.381L417.964,408.66L418.131,408.939L418.298,409.218L418.466,409.496L418.635,409.773L418.805,410.05L418.976,410.326L419.147,410.602L419.319,410.877L419.492,411.152L419.666,411.426L419.84,411.7L420.016,411.972L420.192,412.245L420.369,412.517L420.547,412.788L420.725,413.059L420.905,413.329L421.085,413.599L421.266,413.868L421.448,414.136L421.63,414.404L421.813,414.671L421.997,414.938L422.182,415.204L422.368,415.47L422.554,415.734L422.741,415.999L422.93,416.263L423.118,416.526L423.308,416.789L423.498,417.05L423.689,417.312L423.881,417.573L424.074,417.833L424.267,418.093L424.461,418.352L424.656,418.61L424.851,418.868L425.048,419.125L425.245,419.382L425.443,419.638L425.641,419.893L425.841,420.148L426.041,420.402L426.242,420.656L426.444,420.909L426.646,421.161L426.849,421.413L427.053,421.664L427.257,421.914L427.463,422.164L427.669,422.413L427.876,422.662L428.083,422.91L428.291,423.157L428.5,423.404L428.71,423.65L428.92,423.895L429.132,424.14L429.343,424.384L429.556,424.628L429.769,424.87L429.983,425.113L430.198,425.354L430.414,425.595L430.63,425.835L430.847,426.075L431.064,426.314L431.282,426.552L431.501,426.79L431.721,427.027L431.941,427.263L432.163,427.499L432.384,427.734L432.607,427.968L432.83,428.201L433.054,428.434L433.278,428.667L433.504,428.898L433.73,429.129L433.956,429.36L434.183,429.589L434.411,429.818L434.64,430.046L434.869,430.274L435.1,430.501L435.33,430.727L435.562,430.952L435.793,431.177L436.026,431.401L436.26,431.625L436.494,431.848L436.728,432.07L436.964,432.291L437.2,432.511L437.436,432.731L437.674,432.951L437.912,433.169L438.15,433.387L438.39,433.604L438.63,433.82L438.87,434.036L439.112,434.251L439.354,434.465L439.596,434.679L439.839,434.892L440.083,435.104L440.328,435.315L440.573,435.526L440.819,435.736L441.065,435.945L441.312,436.154L441.56,436.361L441.808,436.568L442.057,436.775L442.306,436.98L442.557,437.185L442.807,437.389L443.059,437.592L443.311,437.795L443.563,437.997L443.817,438.198L444.07,438.398L444.325,438.598L444.58,438.797L444.836,438.995L445.092,439.192L445.349,439.389L445.606,439.584L445.865,439.779L446.123,439.974L446.383,440.167L446.643,440.36L446.903,440.552L447.164,440.743L447.426,440.934L447.688,441.124L447.951,441.313L448.215,441.501L448.479,441.688L448.743,441.875L449.008,442.061L449.274,442.246L449.541,442.43L449.808,442.614L450.075,442.796L450.343,442.978L450.612,443.159L450.881,443.34L451.151,443.519L451.421,443.698L451.692,443.876L451.964,444.053L452.236,444.229L452.509,444.405L452.782,444.58L453.055,444.754L453.33,444.927L453.605,445.099L453.88,445.271L454.156,445.441L454.432,445.611L454.71,445.78L454.987,445.949L455.265,446.116L455.544,446.283L455.823,446.449L456.103,446.614L456.383,446.778L456.664,446.941L456.946,447.104L457.227,447.265L457.51,447.426L457.793,447.587L458.076,447.746L458.36,447.904L458.645,448.062L458.93,448.218L459.216,448.374L459.501,448.529L459.788,448.683L460.075,448.837L460.363,448.989L460.651,449.141L460.94,449.292L461.229,449.442L461.519,449.591L461.809,449.739L462.1,449.886L462.391,450.033L462.682,450.179L462.975,450.323L463.267,450.467L463.56,450.61L463.854,450.753L464.148,450.894L464.443,451.035L464.738,451.174L465.034,451.313L465.33,451.451L465.626,451.588L465.924,451.724L466.221,451.859L466.519,451.993L466.818,452.127L467.117,452.26L467.416,452.391L467.716,452.522L468.017,452.652L468.317,452.781L468.619,452.909L468.921,453.036L469.223,453.163L469.526,453.288L469.829,453.413L470.133,453.537L470.437,453.659L470.741,453.781L471.046,453.902L471.352,454.022L471.658,454.141L471.964,454.26L472.271,454.377L472.578,454.493L472.886,454.609L473.194,454.723L473.503,454.837L473.812,454.95L474.121,455.062L474.431,455.173L474.742,455.283L475.053,455.392L475.364,455.5L475.675,455.607L475.988,455.713L476.3,455.819L476.613,455.923L476.926,456.026L477.24,456.129L477.554,456.231L477.869,456.331L478.184,456.431L478.499,456.53L478.816,456.628L479.132,456.724L479.448,456.82L479.766,456.915L480.083,457.009L480.401,457.102L480.72,457.195L481.038,457.286L481.357,457.376L481.677,457.465L481.997,457.554L482.318,457.641L482.638,457.727L482.959,457.813L483.281,457.897L483.603,457.981L483.925,458.063L484.248,458.145L484.571,458.225L484.895,458.305L485.218,458.383L485.543,458.461L485.867,458.537L486.192,458.613L486.518,458.688L486.844,458.762L487.17,458.834L487.496,458.906L487.823,458.977L488.15,459.046L488.478,459.115L488.806,459.183L489.135,459.25L489.463,459.315L489.793,459.38L490.122,459.444L490.452,459.506L490.782,459.568L491.113,459.629L491.444,459.689L491.775,459.747L492.107,459.805L492.438,459.862L492.771,459.917L493.103,459.972L493.436,460.026L493.77,460.078L494.104,460.13L494.438,460.18L494.772,460.23L495.107,460.279L495.442,460.326L495.777,460.372L496.113,460.418L496.449,460.462L496.786,460.506L497.122,460.548L497.459,460.589L497.797,460.629L498.135,460.669L498.473,460.707L498.811,460.744L499.15,460.78L499.489,460.815L499.828,460.849L500.168,460.882L500.508,460.914L500.848,460.945L501.189,460.974L501.53,461.003L501.871,461.031L502.213,461.057L502.555,461.083L502.897,461.107L503.239,461.13L503.582,461.153L503.925,461.174L504.269,461.194L504.612,461.213L504.956,461.231L505.301,461.248L505.645,461.264L505.99,461.279L506.335,461.292L506.681,461.305L507.027,461.317L507.373,461.327L507.719,461.336L508.066,461.345L508.413,461.352L508.76,461.358L509.107,461.363L509.455,461.367L509.803,461.369L510.151,461.371L510.5,461.371L510.849,461.371L511.197,461.369L511.545,461.367L511.893,461.363L512.24,461.358L512.587,461.352L512.934,461.345L513.281,461.336L513.627,461.327L513.973,461.317L514.319,461.305L514.665,461.292L515.01,461.279L515.355,461.264L515.7,461.248L516.044,461.231L516.388,461.213L516.732,461.194L517.075,461.174L517.418,461.153L517.761,461.13L518.103,461.107L518.445,461.083L518.787,461.057L519.129,461.031L519.47,461.003L519.811,460.974L520.152,460.945L520.492,460.914L520.832,460.882L521.172,460.849L521.511,460.815L521.85,460.78L522.189,460.744L522.527,460.707L522.865,460.669L523.203,460.629L523.541,460.589L523.878,460.548L524.214,460.506L524.551,460.462L524.887,460.418L525.223,460.372L525.558,460.326L525.893,460.279L526.228,460.23L526.562,460.18L526.896,460.13L527.23,460.078L527.564,460.026L527.897,459.972L528.229,459.917L528.562,459.862L528.893,459.805L529.225,459.747L529.557,459.689L529.887,459.629L530.218,459.568L530.548,459.506L530.878,459.444L531.207,459.38L531.537,459.315L531.865,459.25L532.194,459.183L532.522,459.115L532.85,459.046L533.177,458.977L533.504,458.906L533.83,458.834L534.156,458.762L534.482,458.688L534.808,458.613L535.133,458.537L535.457,458.461L535.782,458.383L536.106,458.305L536.429,458.225L536.752,458.145L537.075,458.063L537.397,457.981L537.719,457.897L538.041,457.813L538.362,457.727L538.682,457.641L539.003,457.554L539.323,457.465L539.643,457.376L539.962,457.286L540.281,457.195L540.599,457.102L540.917,457.009L541.234,456.915L541.552,456.82L541.868,456.724L542.185,456.628L542.501,456.53L542.816,456.431L543.131,456.331L543.446,456.231L543.76,456.129L544.074,456.026L544.387,455.923L544.7,455.819L545.012,455.713L545.325,455.607L545.636,455.5L545.948,455.392L546.258,455.283L546.569,455.173L546.879,455.062L547.188,454.95L547.497,454.837L547.806,454.723L548.114,454.609L548.422,454.493L548.729,454.377L549.036,454.26L549.342,454.141L549.648,454.022L549.954,453.902L550.259,453.781L550.563,453.659L550.868,453.537L551.171,453.413L551.474,453.288L551.777,453.163L552.079,453.036L552.381,452.909L552.683,452.781L552.984,452.652L553.284,452.522L553.584,452.391L553.883,452.26L554.182,452.127L554.481,451.993L554.779,451.859L555.076,451.724L555.374,451.588L555.67,451.451L555.966,451.313L556.262,451.174L556.557,451.035L556.852,450.894L557.146,450.753L557.44,450.61L557.733,450.467L558.026,450.323L558.318,450.179L558.609,450.033L558.901,449.886L559.191,449.739L559.482,449.591L559.771,449.442L560.06,449.292L560.349,449.141L560.637,448.989L560.925,448.837L561.212,448.683L561.499,448.529L561.785,448.374L562.07,448.218L562.355,448.062L562.64,447.904L562.924,447.746L563.207,447.587L563.49,447.426L563.773,447.266L564.055,447.104L564.336,446.941L564.617,446.778L564.897,446.614L565.177,446.449L565.456,446.283L565.735,446.116L566.013,445.949L566.29,445.78L566.568,445.611L566.844,445.441L567.12,445.271L567.395,445.099L567.67,444.927L567.945,444.754L568.218,444.58L568.491,444.405L568.764,444.229L569.036,444.053L569.308,443.876L569.579,443.698L569.849,443.519L570.119,443.34L570.388,443.159L570.657,442.978L570.925,442.796L571.192,442.614L571.459,442.43L571.726,442.246L571.992,442.061L572.257,441.875L572.522,441.688L572.786,441.501L573.049,441.313L573.312,441.124L573.574,440.934L573.836,440.743L574.097,440.552L574.358,440.36L574.617,440.167L574.877,439.974L575.135,439.779L575.394,439.584L575.651,439.389L575.908,439.192L576.164,438.995L576.42,438.797L576.675,438.598L576.93,438.398L577.184,438.198L577.437,437.997L577.689,437.795L577.941,437.592L578.193,437.389L578.443,437.185L578.694,436.98L578.943,436.774L579.192,436.568L579.441,436.361L579.688,436.154L579.935,435.945L580.181,435.736L580.427,435.526L580.672,435.315L580.917,435.104L581.161,434.892L581.404,434.679L581.646,434.465L581.888,434.251L582.13,434.036L582.37,433.82L582.61,433.604L582.85,433.387L583.088,433.169L583.326,432.951L583.564,432.731L583.8,432.511L584.036,432.291L584.272,432.07L584.506,431.847L584.74,431.625L584.974,431.401L585.207,431.177L585.439,430.952L585.67,430.727L585.901,430.501L586.131,430.274L586.36,430.046L586.589,429.818L586.817,429.589L587.044,429.36L587.27,429.129L587.496,428.898L587.722,428.667L587.946,428.434L588.17,428.201L588.393,427.968L588.616,427.734L588.838,427.499L589.059,427.263L589.279,427.027L589.499,426.79L589.718,426.552L589.936,426.314L590.154,426.075L590.37,425.835L590.587,425.595L590.802,425.354L591.017,425.113L591.23,424.871L591.444,424.628L591.657,424.384L591.868,424.14L592.08,423.895L592.29,423.65L592.5,423.404L592.709,423.157L592.917,422.91L593.124,422.662L593.331,422.413L593.537,422.164L593.743,421.914L593.947,421.664L594.151,421.413L594.354,421.161L594.557,420.909L594.758,420.656L594.959,420.402L595.159,420.148L595.358,419.893L595.557,419.638L595.755,419.382L595.952,419.125L596.149,418.868L596.344,418.61L596.539,418.352L596.733,418.093L596.927,417.833L597.119,417.573L597.311,417.312L597.502,417.05L597.692,416.788L597.882,416.526L598.07,416.263L598.259,415.999L598.446,415.734L598.632,415.47L598.818,415.204L599.003,414.938L599.187,414.671L599.37,414.404L599.552,414.136L599.734,413.868L599.915,413.599L600.095,413.329L600.275,413.059L600.453,412.788L600.631,412.517L600.808,412.245L600.984,411.972L601.16,411.7L601.334,411.426L601.508,411.152L601.681,410.877L601.853,410.602L602.024,410.326L602.195,410.05L602.365,409.773L602.534,409.496L602.702,409.218L602.869,408.939L603.036,408.66L603.201,408.381L603.366,408.101L603.53,407.82L603.693,407.539L603.856,407.257L604.017,406.975L604.178,406.692L604.338,406.409L604.497,406.125L604.655,405.841L604.813,405.556L604.969,405.27L605.125,404.984L605.28,404.698L605.434,404.411L605.587,404.123L605.739,403.835L605.891,403.547L606.042,403.258L606.191,402.968L606.34,402.678L606.488,402.388L606.636,402.097L606.782,401.805L606.928,401.513L607.072,401.22L607.216,400.927L607.359,400.634L607.501,400.34L607.642,400.045L607.783,399.75L607.922,399.455L608.061,399.158L608.198,398.862L608.335,398.565L608.471,398.268L608.606,397.97L608.741,397.671L608.874,397.372L609.006,397.073L609.138,396.773L609.269,396.473L609.398,396.172L609.527,395.87L609.655,395.569L609.783,395.267L609.909,394.964L610.034,394.661L610.159,394.357L610.282,394.053L610.405,393.749L610.527,393.444L610.648,393.138L610.767,392.832L610.886,392.526L611.005,392.219L611.122,391.912L611.238,391.604L611.353,391.296L611.468,390.987L611.582,390.678L611.694,390.369L611.806,390.059L611.917,389.749L612.027,389.438L612.136,389.127L612.244,388.815L612.351,388.503L612.457,388.19L612.562,387.878L612.666,387.564L612.77,387.25L612.872,386.936L612.974,386.621L613.074,386.306L613.174,385.991L613.273,385.675L613.37,385.359L613.467,385.042L613.563,384.725L613.658,384.407L613.752,384.089L613.845,383.771L613.937,383.452L614.028,383.133L614.118,382.813L614.207,382.493L614.295,382.173L614.383,381.852L614.469,381.531L614.554,381.209L614.639,380.887L614.722,380.565L614.804,380.242L614.886,379.919L614.966,379.595L615.046,379.272L615.124,378.947L615.202,378.622L615.279,378.297L615.354,377.972L615.429,377.646L615.502,377.32L615.575,376.993L615.647,376.666L615.717,376.339L615.787,376.011L615.856,375.683L615.923,375.354L615.99,375.026L616.056,374.696L616.12,374.367L616.184,374.037L616.247,373.706L616.308,373.376L616.369,373.045L616.429,372.713L616.487,372.382L616.545,372.05L616.602,371.717L616.657,371.384L616.712,371.051L616.765,370.718L616.818,370.384L616.869,370.05L616.92,369.715L616.97,369.38L617.018,369.045L617.065,368.71L617.112,368.374L617.157,368.037L617.202,367.701L617.245,367.364L617.287,367.027L617.328,366.689L617.369,366.351L617.408,366.013L617.446,365.675L617.483,365.336L617.519,364.996L617.554,364.657L617.588,364.317L617.621,363.977L617.653,363.637L617.683,363.296L617.713,362.955L617.742,362.613L617.769,362.272L617.796,361.93L617.821,361.587L617.846,361.244L617.869,360.901L617.891,360.558L617.913,360.215L617.933,359.871L617.952,359.527L617.97,359.182L617.987,358.837L618.003,358.492L618.017,358.147L618.031,357.801L618.044,357.455L618.055,357.109L618.065,356.762L618.075,356.416L618.083,356.068L618.09,355.721L618.096,355.373L618.101,355.025L618.105,354.677L618.108,354.329L618.109,353.98L618.11,353.631L618.109,353.282L618.108,352.933L618.105,352.584L618.101,352.236L618.096,351.888L618.09,351.54L618.083,351.193L618.075,350.846L618.065,350.499L618.055,350.152L618.044,349.806L618.031,349.46L618.017,349.115L618.003,348.769L617.987,348.424L617.97,348.079L617.952,347.735L617.933,347.391L617.913,347.047L617.891,346.703L617.869,346.36L617.846,346.017L617.821,345.674L617.796,345.332L617.769,344.99L617.742,344.648L617.713,344.307L617.683,343.966L617.653,343.625L617.621,343.284L617.588,342.944L617.554,342.605L617.519,342.265L617.483,341.926L617.446,341.587L617.408,341.248L617.369,340.91L617.328,340.572L617.287,340.235L617.245,339.897L617.202,339.561L617.157,339.224L617.112,338.888L617.065,338.552L617.018,338.216L616.97,337.881L616.92,337.546L616.869,337.212L616.818,336.878L616.765,336.544L616.712,336.21L616.657,335.877L616.602,335.544L616.545,335.212L616.487,334.88L616.429,334.548L616.369,334.217L616.308,333.886L616.247,333.555L616.184,333.225L616.12,332.895L616.056,332.565L615.99,332.236L615.923,331.907L615.856,331.579L615.787,331.251L615.717,330.923L615.647,330.596L615.575,330.268L615.502,329.942L615.429,329.616L615.354,329.29L615.279,328.964L615.202,328.639L615.124,328.315L615.046,327.99L614.966,327.666L614.886,327.343L614.804,327.02L614.722,326.697L614.639,326.374L614.554,326.052L614.469,325.731L614.383,325.41L614.295,325.089L614.207,324.768L614.118,324.448L614.028,324.129L613.937,323.81L613.845,323.491L613.752,323.173L613.658,322.854L613.563,322.537L613.467,322.22L613.37,321.903L613.273,321.587L613.174,321.271L613.074,320.955L612.974,320.64L612.872,320.326L612.77,320.011L612.666,319.698L612.562,319.384L612.457,319.071L612.351,318.759L612.244,318.447L612.136,318.135L612.027,317.824L611.917,317.513L611.806,317.202L611.694,316.893L611.582,316.583L611.468,316.274L611.353,315.965L611.238,315.657L611.122,315.35L611.005,315.042L610.886,314.735L610.767,314.429L610.648,314.124L610.527,313.818L610.405,313.513L610.282,313.208L610.159,312.904L610.034,312.601L609.909,312.298L609.783,311.995L609.655,311.693L609.527,311.391L609.399,311.09L609.269,310.789L609.138,310.489L609.006,310.189L608.874,309.889L608.741,309.59L608.606,309.292L608.471,308.994L608.335,308.696L608.198,308.4L608.061,308.103L607.922,307.807L607.783,307.511L607.642,307.216L607.501,306.922L607.359,306.628L607.216,306.334L607.072,306.041L606.928,305.749L606.782,305.457L606.636,305.165L606.488,304.874L606.34,304.583L606.191,304.293L606.042,304.004L605.891,303.715L605.739,303.426L605.587,303.138L605.434,302.851L605.28,302.564L605.125,302.277L604.969,301.991L604.813,301.706L604.655,301.421L604.497,301.137L604.338,300.853L604.178,300.57L604.017,300.287L603.856,300.004L603.693,299.723L603.53,299.442L603.366,299.161L603.201,298.881L603.036,298.601L602.869,298.322L602.702,298.044L602.534,297.766L602.365,297.488L602.195,297.211L602.024,296.935L601.853,296.659L601.681,296.384L601.508,296.109L601.334,295.835L601.16,295.562L600.984,295.289L600.808,295.017L600.631,294.745L600.453,294.473L600.275,294.203L600.095,293.933L599.915,293.663L599.734,293.394L599.553,293.126L599.37,292.858L599.187,292.59L599.003,292.324L598.818,292.058L598.632,291.792L598.446,291.527L598.259,291.263L598.07,290.999L597.882,290.736L597.692,290.473L597.502,290.211L597.311,289.95L597.119,289.689L596.927,289.429L596.733,289.169L596.539,288.91L596.344,288.652L596.149,288.394L595.952,288.136L595.755,287.88L595.557,287.624L595.358,287.368L595.159,287.114L594.959,286.86L594.758,286.606L594.557,286.353L594.354,286.101L594.151,285.849L593.947,285.598L593.743,285.347L593.537,285.098L593.331,284.848L593.124,284.6L592.917,284.352L592.709,284.104L592.5,283.858L592.29,283.612L592.08,283.366L591.868,283.122L591.657,282.878L591.444,282.634L591.231,282.391L591.017,282.149L590.802,281.908L590.586,281.667L590.37,281.426L590.154,281.187L589.936,280.948L589.718,280.709L589.499,280.472L589.279,280.235L589.059,279.999L588.838,279.763L588.616,279.528L588.393,279.294L588.17,279.06L587.946,278.827L587.722,278.595L587.496,278.363L587.27,278.132L587.044,277.902L586.817,277.672L586.589,277.444L586.36,277.215L586.131,276.988L585.901,276.761L585.67,276.535L585.438,276.309L585.206,276.084L584.974,275.86L584.74,275.637L584.506,275.414L584.272,275.192L584.036,274.971L583.8,274.75L583.564,274.53L583.326,274.311L583.088,274.092L582.849,273.874L582.61,273.657L582.37,273.441L582.13,273.225L581.888,273.01L581.646,272.796L581.404,272.583L581.161,272.37L580.917,272.158L580.672,271.946L580.427,271.736L580.181,271.526L579.935,271.317L579.688,271.108L579.441,270.9L579.192,270.693L578.943,270.487L578.694,270.281L578.444,270.077L578.193,269.873L577.941,269.669L577.689,269.467L577.437,269.265L577.183,269.064L576.93,268.863L576.675,268.664L576.42,268.465L576.164,268.267L575.908,268.07L575.651,267.873L575.393,267.677L575.135,267.482L574.877,267.288L574.617,267.094L574.357,266.901L574.097,266.709L573.836,266.518L573.574,266.328L573.312,266.138L573.049,265.949L572.786,265.761L572.521,265.573L572.257,265.387L571.992,265.201L571.726,265.016L571.459,264.832L571.193,264.648L570.925,264.465L570.657,264.283L570.388,264.102L570.119,263.922L569.849,263.742L569.579,263.564L569.308,263.386L569.036,263.209L568.764,263.032L568.492,262.857L568.218,262.682L567.945,262.508L567.67,262.335L567.396,262.162L567.12,261.991L566.844,261.82L566.568,261.65L566.291,261.481L566.013,261.313L565.735,261.145L565.456,260.979L565.177,260.813L564.897,260.648L564.617,260.484L564.336,260.32L564.055,260.158L563.773,259.996L563.49,259.835L563.207,259.675L562.924,259.516L562.64,259.357L562.355,259.2L562.07,259.043L561.785,258.887L561.499,258.732L561.212,258.578L560.925,258.425L560.637,258.272L560.349,258.121L560.06,257.97L559.771,257.82L559.481,257.671L559.191,257.522L558.901,257.375L558.609,257.229L558.318,257.083L558.026,256.938L557.733,256.794L557.44,256.651L557.146,256.509L556.852,256.367L556.557,256.227L556.262,256.087L555.966,255.949L555.67,255.811L555.374,255.674L555.077,255.538L554.779,255.402L554.481,255.268L554.182,255.135L553.883,255.002L553.584,254.87L553.284,254.74L552.984,254.61L552.683,254.481L552.381,254.352L552.079,254.225L551.777,254.099L551.474,253.973L551.171,253.849L550.868,253.725L550.564,253.602L550.259,253.48L549.954,253.359L549.648,253.239L549.342,253.12L549.036,253.002L548.729,252.885L548.422,252.768L548.114,252.653L547.806,252.538L547.497,252.424L547.188,252.312L546.879,252.2L546.569,252.089L546.258,251.979L545.948,251.87L545.636,251.762L545.325,251.655L545.013,251.548L544.7,251.443L544.387,251.339L544.074,251.235L543.76,251.133L543.446,251.031L543.131,250.93L542.816,250.831L542.5,250.732L542.185,250.634L541.868,250.537L541.552,250.441L541.234,250.346L540.917,250.252L540.599,250.159L540.281,250.067L539.962,249.976L539.643,249.886L539.323,249.796L539.003,249.708L538.683,249.621L538.362,249.534L538.041,249.449L537.719,249.364L537.397,249.281L537.075,249.199L536.752,249.117L536.429,249.036L536.106,248.957L535.782,248.878L535.457,248.801L535.133,248.724L534.808,248.648L534.482,248.574L534.156,248.5L533.83,248.427L533.504,248.356L533.177,248.285L532.85,248.215L532.522,248.146L532.194,248.079L531.865,248.012L531.537,247.946L531.208,247.882L530.878,247.818L530.548,247.755L530.218,247.693L529.887,247.633L529.557,247.573L529.225,247.514L528.894,247.456L528.562,247.4L528.229,247.344L527.897,247.289L527.564,247.236L527.23,247.183L526.896,247.132L526.562,247.081L526.228,247.032L525.893,246.983L525.558,246.936L525.223,246.889L524.887,246.844L524.551,246.799L524.214,246.756L523.878,246.714L523.541,246.672L523.203,246.632L522.865,246.593L522.527,246.555L522.189,246.518L521.85,246.482L521.511,246.447L521.172,246.413L520.832,246.38L520.492,246.348L520.152,246.317L519.811,246.287L519.47,246.259L519.129,246.231L518.787,246.204L518.445,246.179L518.103,246.154L517.761,246.131L517.418,246.109L517.075,246.088L516.731,246.067L516.388,246.048L516.044,246.03L515.699,246.013L515.355,245.998L515.01,245.983L514.665,245.969L514.319,245.957L513.974,245.945L513.627,245.935L513.281,245.925L512.934,245.917L512.588,245.91L512.24,245.904L511.893,245.899L511.545,245.895L511.197,245.892L510.849,245.891L510.5,245.89L510.151,245.891Z" style="fill:rgb(253,187,17);"/>
    </g>
    <g id="star-copy" transform="matrix(1,0,0,1,-355.353,-198.353)">
        <path d="M581.467,330.726C581.467,328.567 579.829,327.225 576.547,326.7L532.465,320.311L512.706,280.485C511.595,278.092 510.159,276.897 508.403,276.897C506.648,276.897 505.213,278.092 504.1,280.485L484.341,320.311L440.256,326.7C436.978,327.225 435.339,328.567 435.339,330.726C435.339,331.952 436.071,333.353 437.534,334.928L469.501,365.913L461.948,409.677C461.831,410.495 461.773,411.079 461.773,411.428C461.773,412.654 462.08,413.689 462.695,414.536C463.309,415.383 464.231,415.804 465.461,415.804C466.515,415.804 467.685,415.457 468.973,414.755L508.402,394.097L547.834,414.755C549.065,415.456 550.235,415.804 551.346,415.804C552.52,415.804 553.411,415.383 554.026,414.536C554.64,413.689 554.947,412.654 554.947,411.428C554.947,410.67 554.918,410.086 554.859,409.677L547.305,365.913L579.183,334.928C580.707,333.411 581.467,332.01 581.467,330.726Z" style="fill:rgb(253,187,17);fill-rule:nonzero;"/>
    </g>
</svg>
