<?xml version="1.0" encoding="UTF-8" standalone="no"?><!DOCTYPE svg PUBLIC "-//W3C//DTD SVG 1.1//EN" "http://www.w3.org/Graphics/SVG/1.1/DTD/svg11.dtd"><svg width="100%" height="100%" viewBox="0 0 233 233" version="1.1" xmlns="http://www.w3.org/2000/svg" xmlns:xlink="http://www.w3.org/1999/xlink" xml:space="preserve" style="fill-rule:evenodd;clip-rule:evenodd;stroke-linejoin:round;stroke-miterlimit:1.41421;"><path id="Ellipse-6" d="M116.64,29.736l0.28,0.001l0.28,0.002l0.28,0.003l0.279,0.004l0.279,0.005l0.279,0.006l0.279,0.006l0.278,0.008l0.279,0.008l0.278,0.01l0.278,0.01l0.277,0.011l0.278,0.012l0.277,0.012l0.277,0.014l0.276,0.014l0.277,0.016l0.276,0.016l0.276,0.017l0.276,0.018l0.276,0.019l0.275,0.019l0.275,0.021l0.275,0.021l0.274,0.023l0.275,0.023l0.274,0.024l0.274,0.024l0.273,0.026l0.274,0.026l0.273,0.028l0.273,0.028l0.272,0.029l0.273,0.03l0.272,0.031l0.272,0.031l0.271,0.033l0.272,0.033l0.271,0.034l0.271,0.035l0.27,0.035l0.271,0.037l0.27,0.037l0.269,0.039l0.27,0.039l0.269,0.04l0.269,0.04l0.269,0.042l0.268,0.042l0.268,0.043l0.268,0.044l0.268,0.045l0.267,0.046l0.267,0.046l0.267,0.048l0.267,0.048l0.266,0.049l0.266,0.049l0.265,0.051l0.266,0.051l0.265,0.052l0.265,0.053l0.264,0.054l0.264,0.055l0.264,0.055l0.264,0.056l0.263,0.057l0.263,0.058l0.263,0.058l0.262,0.06l0.262,0.06l0.262,0.061l0.261,0.061l0.262,0.063l0.261,0.063l0.26,0.064l0.26,0.065l0.26,0.066l0.26,0.066l0.259,0.068l0.259,0.068l0.259,0.068l0.258,0.07l0.258,0.07l0.258,0.071l0.258,0.072l0.257,0.073l0.256,0.073l0.257,0.075l0.256,0.075l0.256,0.075l0.255,0.077l0.255,0.077l0.255,0.078l0.255,0.079l0.254,0.08l0.254,0.08l0.253,0.081l0.253,0.082l0.253,0.082l0.252,0.084l0.252,0.084l0.252,0.085l0.252,0.085l0.251,0.087l0.25,0.087l0.251,0.088l0.25,0.088l0.249,0.09l0.25,0.09l0.249,0.09l0.248,0.092l0.248,0.092l0.248,0.093l0.248,0.094l0.247,0.095l0.247,0.095l0.246,0.096l0.246,0.096l0.246,0.098l0.245,0.098l0.245,0.099l0.245,0.1l0.244,0.1l0.244,0.101l0.243,0.102l0.243,0.102l0.243,0.103l0.242,0.104l0.242,0.105l0.242,0.105l0.241,0.106l0.241,0.107l0.24,0.108l0.24,0.108l0.24,0.109l0.239,0.109l0.239,0.111l0.239,0.111l0.238,0.112l0.237,0.112l0.238,0.113l0.237,0.114l0.236,0.114l0.236,0.116l0.236,0.116l0.235,0.116l0.235,0.117l0.234,0.118l0.235,0.119l0.233,0.12l0.233,0.12l0.233,0.12l0.233,0.122l0.232,0.122l0.231,0.123l0.232,0.123l0.23,0.124l0.231,0.125l0.23,0.126l0.229,0.126l0.229,0.127l0.229,0.127l0.228,0.128l0.228,0.129l0.227,0.13l0.227,0.13l0.227,0.131l0.226,0.131l0.226,0.132l0.225,0.133l0.225,0.134l0.224,0.134l0.224,0.135l0.223,0.135l0.223,0.136l0.223,0.137l0.222,0.138l0.222,0.138l0.221,0.138l0.221,0.14l0.22,0.14l0.22,0.141l0.219,0.141l0.219,0.142l0.219,0.142l0.218,0.144l0.218,0.144l0.217,0.144l0.217,0.145l0.216,0.146l0.216,0.146l0.215,0.147l0.215,0.148l0.214,0.148l0.214,0.149l0.214,0.15l0.213,0.15l0.212,0.151l0.212,0.151l0.212,0.153l0.211,0.152l0.21,0.154l0.211,0.153l0.209,0.155l0.209,0.155l0.209,0.156l0.208,0.156l0.208,0.157l0.207,0.158l0.207,0.158l0.206,0.159l0.206,0.159l0.205,0.16l0.205,0.161l0.204,0.161l0.204,0.162l0.204,0.162l0.202,0.163l0.203,0.164l0.201,0.164l0.202,0.165l0.201,0.165l0.2,0.166l0.2,0.167l0.199,0.167l0.199,0.168l0.198,0.168l0.198,0.169l0.197,0.17l0.197,0.17l0.196,0.17l0.196,0.172l0.195,0.171l0.194,0.173l0.194,0.173l0.194,0.173l0.193,0.174l0.193,0.175l0.192,0.175l0.191,0.176l0.191,0.177l0.191,0.177l0.19,0.177l0.189,0.178l0.189,0.179l0.188,0.179l0.188,0.18l0.187,0.18l0.187,0.181l0.186,0.181l0.186,0.182l0.185,0.183l0.184,0.183l0.184,0.184l0.184,0.184l0.182,0.185l0.183,0.185l0.182,0.186l0.181,0.186l0.18,0.187l0.181,0.187l0.179,0.188l0.179,0.189l0.179,0.189l0.177,0.19l0.178,0.19l0.177,0.19l0.176,0.192l0.175,0.191l0.175,0.193l0.175,0.192l0.174,0.194l0.173,0.193l0.173,0.195l0.172,0.195l0.172,0.195l0.171,0.196l0.17,0.196l0.17,0.197l0.169,0.198l0.169,0.198l0.168,0.198l0.168,0.199l0.167,0.2l0.166,0.2l0.166,0.2l0.165,0.201l0.165,0.202l0.164,0.202l0.163,0.202l0.163,0.203l0.162,0.204l0.162,0.204l0.161,0.204l0.161,0.205l0.159,0.206l0.16,0.206l0.158,0.206l0.158,0.207l0.158,0.208l0.157,0.208l0.156,0.208l0.155,0.209l0.155,0.21l0.155,0.21l0.153,0.21l0.153,0.211l0.153,0.211l0.152,0.212l0.151,0.212l0.151,0.213l0.15,0.213l0.149,0.214l0.149,0.214l0.148,0.215l0.148,0.215l0.147,0.215l0.146,0.216l0.145,0.217l0.145,0.217l0.145,0.217l0.144,0.218l0.143,0.219l0.142,0.218l0.142,0.22l0.141,0.219l0.141,0.22l0.139,0.221l0.14,0.221l0.138,0.222l0.138,0.222l0.137,0.222l0.137,0.223l0.136,0.223l0.135,0.224l0.135,0.224l0.134,0.225l0.133,0.225l0.133,0.225l0.132,0.226l0.131,0.226l0.131,0.227l0.13,0.227l0.13,0.228l0.128,0.228l0.128,0.229l0.128,0.228l0.126,0.23l0.126,0.23l0.126,0.23l0.125,0.23l0.124,0.231l0.123,0.232l0.123,0.232l0.121,0.232l0.122,0.233l0.12,0.233l0.12,0.233l0.12,0.234l0.118,0.235l0.118,0.234l0.117,0.235l0.117,0.236l0.115,0.236l0.115,0.236l0.115,0.237l0.114,0.237l0.113,0.238l0.112,0.238l0.111,0.238l0.111,0.239l0.111,0.239l0.109,0.24l0.109,0.239l0.108,0.241l0.107,0.24l0.107,0.241l0.106,0.242l0.105,0.242l0.105,0.242l0.104,0.243l0.103,0.243l0.102,0.243l0.102,0.244l0.101,0.244l0.1,0.244l0.099,0.245l0.099,0.245l0.098,0.246l0.097,0.246l0.097,0.246l0.096,0.247l0.095,0.247l0.094,0.248l0.094,0.247l0.093,0.248l0.092,0.249l0.092,0.249l0.09,0.249l0.09,0.25l0.09,0.25l0.088,0.25l0.088,0.251l0.087,0.251l0.086,0.251l0.086,0.252l0.084,0.252l0.084,0.252l0.084,0.253l0.082,0.253l0.082,0.253l0.081,0.254l0.08,0.254l0.08,0.254l0.078,0.255l0.078,0.255l0.077,0.256l0.077,0.255l0.075,0.256l0.075,0.257l0.074,0.257l0.074,0.257l0.072,0.257l0.072,0.258l0.071,0.258l0.071,0.258l0.069,0.259l0.069,0.259l0.068,0.259l0.067,0.26l0.066,0.26l0.066,0.26l0.065,0.26l0.064,0.261l0.063,0.261l0.062,0.262l0.062,0.262l0.061,0.262l0.06,0.262l0.059,0.263l0.059,0.263l0.057,0.263l0.057,0.264l0.056,0.264l0.056,0.264l0.054,0.264l0.054,0.265l0.053,0.265l0.052,0.266l0.051,0.265l0.051,0.266l0.049,0.266l0.049,0.267l0.048,0.267l0.047,0.267l0.047,0.267l0.045,0.268l0.045,0.268l0.044,0.268l0.043,0.268l0.042,0.269l0.042,0.269l0.041,0.269l0.039,0.27l0.039,0.27l0.039,0.27l0.037,0.27l0.036,0.271l0.036,0.271l0.035,0.271l0.034,0.271l0.033,0.272l0.033,0.272l0.031,0.272l0.031,0.272l0.03,0.273l0.029,0.273l0.028,0.273l0.027,0.274l0.027,0.273l0.025,0.274l0.025,0.274l0.024,0.275l0.023,0.275l0.022,0.274l0.021,0.276l0.021,0.275l0.02,0.276l0.018,0.276l0.018,0.276l0.017,0.276l0.017,0.277l0.015,0.276l0.014,0.277l0.014,0.278l0.013,0.277l0.012,0.278l0.01,0.278l0.011,0.278l0.009,0.278l0.008,0.279l0.008,0.279l0.006,0.279l0.006,0.279l0.005,0.28l0.004,0.279l0.003,0.28l0.002,0.28l0.002,0.281l0,0.28l0,0.281l-0.002,0.28l-0.002,0.28l-0.003,0.28l-0.004,0.28l-0.005,0.279l-0.006,0.279l-0.006,0.279l-0.008,0.279l-0.008,0.279l-0.009,0.278l-0.011,0.278l-0.01,0.278l-0.012,0.278l-0.013,0.278l-0.014,0.277l-0.014,0.277l-0.015,0.277l-0.017,0.276l-0.017,0.277l-0.018,0.276l-0.018,0.276l-0.02,0.275l-0.021,0.276l-0.021,0.275l-0.022,0.275l-0.023,0.274l-0.024,0.275l-0.025,0.274l-0.025,0.274l-0.027,0.274l-0.027,0.273l-0.028,0.273l-0.029,0.273l-0.03,0.273l-0.031,0.272l-0.031,0.272l-0.033,0.272l-0.033,0.272l-0.034,0.271l-0.035,0.272l-0.036,0.27l-0.036,0.271l-0.037,0.27l-0.039,0.271l-0.039,0.269l-0.039,0.27l-0.041,0.269l-0.042,0.269l-0.042,0.269l-0.043,0.268l-0.044,0.269l-0.045,0.267l-0.045,0.268l-0.047,0.267l-0.047,0.268l-0.048,0.266l-0.049,0.267l-0.049,0.266l-0.051,0.266l-0.051,0.266l-0.052,0.265l-0.053,0.265l-0.054,0.265l-0.054,0.264l-0.056,0.265l-0.056,0.263l-0.057,0.264l-0.057,0.263l-0.059,0.263l-0.059,0.263l-0.06,0.262l-0.061,0.262l-0.062,0.262l-0.062,0.262l-0.063,0.261l-0.064,0.261l-0.065,0.26l-0.066,0.261l-0.066,0.26l-0.067,0.259l-0.068,0.259l-0.069,0.259l-0.069,0.259l-0.071,0.258l-0.071,0.259l-0.072,0.257l-0.072,0.258l-0.074,0.257l-0.074,0.256l-0.075,0.257l-0.075,0.256l-0.077,0.256l-0.077,0.255l-0.078,0.255l-0.078,0.255l-0.08,0.254l-0.08,0.254l-0.081,0.254l-0.082,0.254l-0.082,0.253l-0.084,0.252l-0.084,0.253l-0.084,0.252l-0.086,0.251l-0.086,0.252l-0.087,0.251l-0.088,0.25l-0.088,0.251l-0.09,0.25l-0.09,0.249l-0.09,0.249l-0.092,0.249l-0.092,0.249l-0.093,0.248l-0.094,0.248l-0.094,0.247l-0.095,0.247l-0.096,0.247l-0.097,0.246l-0.097,0.246l-0.098,0.246l-0.099,0.245l-0.099,0.245l-0.1,0.244l-0.101,0.245l-0.102,0.243l-0.102,0.244l-0.103,0.243l-0.104,0.242l-0.105,0.242l-0.105,0.242l-0.106,0.242l-0.107,0.241l-0.107,0.241l-0.108,0.24l-0.109,0.24l-0.109,0.239l-0.111,0.239l-0.111,0.239l-0.111,0.238l-0.112,0.238l-0.113,0.238l-0.114,0.237l-0.115,0.237l-0.115,0.236l-0.115,0.236l-0.117,0.236l-0.117,0.235l-0.118,0.235l-0.118,0.234l-0.12,0.234l-0.12,0.233l-0.12,0.234l-0.122,0.232l-0.121,0.233l-0.123,0.231l-0.123,0.232l-0.124,0.231l-0.125,0.23l-0.126,0.231l-0.126,0.229l-0.126,0.23l-0.128,0.229l-0.128,0.228l-0.128,0.228l-0.13,0.228l-0.13,0.227l-0.131,0.227l-0.131,0.226l-0.132,0.226l-0.133,0.226l-0.133,0.225l-0.134,0.224l-0.135,0.224l-0.135,0.224l-0.136,0.223l-0.137,0.223l-0.137,0.223l-0.138,0.222l-0.138,0.221l-0.14,0.221l-0.139,0.221l-0.141,0.22l-0.141,0.22l-0.142,0.219l-0.142,0.219l-0.143,0.218l-0.144,0.218l-0.145,0.217l-0.145,0.217l-0.145,0.217l-0.146,0.216l-0.147,0.215l-0.148,0.216l-0.148,0.214l-0.149,0.214l-0.149,0.214l-0.15,0.213l-0.151,0.213l-0.151,0.212l-0.152,0.212l-0.153,0.211l-0.153,0.211l-0.153,0.211l-0.155,0.21l-0.155,0.209l-0.155,0.209l-0.156,0.208l-0.157,0.208l-0.158,0.208l-0.158,0.207l-0.158,0.206l-0.16,0.206l-0.159,0.206l-0.161,0.205l-0.161,0.204l-0.162,0.204l-0.162,0.204l-0.163,0.203l-0.163,0.202l-0.164,0.202l-0.165,0.202l-0.165,0.201l-0.166,0.201l-0.166,0.2l-0.167,0.199l-0.168,0.199l-0.168,0.199l-0.169,0.197l-0.169,0.198l-0.17,0.197l-0.17,0.196l-0.171,0.196l-0.172,0.196l-0.172,0.194l-0.173,0.195l-0.173,0.194l-0.174,0.193l-0.175,0.193l-0.175,0.192l-0.175,0.192l-0.176,0.191l-0.177,0.191l-0.178,0.19l-0.177,0.189l-0.179,0.189l-0.179,0.189l-0.179,0.188l-0.181,0.187l-0.18,0.187l-0.181,0.187l-0.182,0.185l-0.183,0.186l-0.182,0.184l-0.184,0.185l-0.184,0.183l-0.184,0.183l-0.185,0.183l-0.186,0.182l-0.186,0.181l-0.187,0.181l-0.187,0.18l-0.188,0.18l-0.188,0.179l-0.189,0.179l-0.189,0.178l-0.19,0.178l-0.191,0.177l-0.191,0.176l-0.191,0.176l-0.192,0.175l-0.193,0.175l-0.193,0.174l-0.194,0.173l-0.194,0.173l-0.194,0.173l-0.195,0.172l-0.196,0.171l-0.196,0.171l-0.197,0.17l-0.197,0.169l-0.198,0.169l-0.198,0.168l-0.199,0.168l-0.199,0.167l-0.2,0.167l-0.2,0.166l-0.201,0.165l-0.202,0.165l-0.201,0.164l-0.203,0.164l-0.202,0.163l-0.204,0.162l-0.204,0.162l-0.204,0.161l-0.205,0.161l-0.205,0.16l-0.206,0.159l-0.206,0.159l-0.207,0.158l-0.207,0.158l-0.208,0.157l-0.208,0.156l-0.209,0.156l-0.209,0.155l-0.209,0.155l-0.211,0.154l-0.21,0.153l-0.211,0.153l-0.212,0.152l-0.212,0.151l-0.212,0.151l-0.213,0.15l-0.214,0.15l-0.214,0.149l-0.214,0.148l-0.215,0.148l-0.215,0.147l-0.216,0.146l-0.216,0.146l-0.217,0.145l-0.217,0.145l-0.218,0.144l-0.218,0.143l-0.219,0.142l-0.219,0.142l-0.219,0.142l-0.22,0.14l-0.22,0.14l-0.221,0.14l-0.221,0.139l-0.222,0.138l-0.222,0.137l-0.223,0.137l-0.223,0.136l-0.223,0.135l-0.224,0.135l-0.224,0.134l-0.225,0.134l-0.225,0.133l-0.226,0.132l-0.226,0.132l-0.227,0.13l-0.227,0.131l-0.227,0.129l-0.228,0.129l-0.228,0.128l-0.229,0.128l-0.229,0.126l-0.229,0.127l-0.23,0.125l-0.231,0.125l-0.23,0.124l-0.232,0.124l-0.231,0.122l-0.232,0.122l-0.233,0.122l-0.233,0.121l-0.233,0.12l-0.233,0.119l-0.235,0.119l-0.234,0.118l-0.235,0.117l-0.235,0.117l-0.236,0.116l-0.236,0.115l-0.236,0.114l-0.237,0.114l-0.238,0.113l-0.237,0.113l-0.238,0.111l-0.239,0.111l-0.239,0.111l-0.239,0.109l-0.24,0.109l-0.24,0.109l-0.24,0.107l-0.241,0.107l-0.241,0.106l-0.242,0.105l-0.242,0.105l-0.242,0.104l-0.243,0.103l-0.243,0.103l-0.243,0.101l-0.244,0.101l-0.244,0.101l-0.245,0.099l-0.245,0.099l-0.245,0.098l-0.246,0.098l-0.246,0.096l-0.246,0.096l-0.247,0.096l-0.247,0.094l-0.248,0.094l-0.248,0.093l-0.248,0.092l-0.248,0.092l-0.249,0.091l-0.25,0.09l-0.249,0.089l-0.25,0.089l-0.251,0.088l-0.25,0.087l-0.251,0.086l-0.252,0.086l-0.252,0.084l-0.252,0.085l-0.252,0.083l-0.253,0.082l-0.253,0.082l-0.253,0.081l-0.254,0.081l-0.254,0.079l-0.255,0.079l-0.255,0.078l-0.255,0.077l-0.255,0.077l-0.256,0.076l-0.256,0.075l-0.257,0.074l-0.256,0.073l-0.257,0.073l-0.258,0.072l-0.258,0.071l-0.258,0.07l-0.258,0.07l-0.259,0.069l-0.259,0.068l-0.259,0.067l-0.26,0.066l-0.26,0.066l-0.26,0.065l-0.26,0.064l-0.261,0.063l-0.262,0.063l-0.261,0.062l-0.262,0.06l-0.262,0.061l-0.262,0.059l-0.263,0.058l-0.263,0.058l-0.263,0.057l-0.264,0.056l-0.264,0.056l-0.264,0.054l-0.264,0.054l-0.265,0.053l-0.265,0.052l-0.266,0.051l-0.265,0.051l-0.266,0.05l-0.266,0.049l-0.267,0.048l-0.267,0.047l-0.267,0.046l-0.267,0.046l-0.268,0.045l-0.268,0.044l-0.268,0.043l-0.268,0.042l-0.269,0.042l-0.269,0.041l-0.269,0.04l-0.27,0.039l-0.269,0.038l-0.27,0.037l-0.271,0.037l-0.27,0.036l-0.271,0.034l-0.271,0.034l-0.272,0.034l-0.271,0.032l-0.272,0.032l-0.272,0.03l-0.273,0.03l-0.272,0.029l-0.273,0.028l-0.273,0.028l-0.274,0.026l-0.273,0.026l-0.274,0.025l-0.274,0.024l-0.275,0.023l-0.274,0.022l-0.275,0.021l-0.275,0.021l-0.275,0.019l-0.276,0.019l-0.276,0.018l-0.276,0.017l-0.276,0.017l-0.277,0.015l-0.276,0.014l-0.277,0.014l-0.277,0.013l-0.278,0.012l-0.277,0.011l-0.278,0.01l-0.278,0.009l-0.279,0.008l-0.278,0.008l-0.279,0.006l-0.279,0.006l-0.279,0.005l-0.279,0.004l-0.28,0.003l-0.28,0.002l-0.28,0.002l-0.28,0l-0.28,0l-0.28,-0.002l-0.28,-0.002l-0.28,-0.003l-0.279,-0.004l-0.279,-0.005l-0.279,-0.006l-0.279,-0.006l-0.278,-0.008l-0.279,-0.008l-0.278,-0.009l-0.277,-0.01l-0.278,-0.011l-0.278,-0.012l-0.277,-0.013l-0.277,-0.014l-0.276,-0.014l-0.277,-0.015l-0.276,-0.017l-0.276,-0.017l-0.276,-0.018l-0.275,-0.019l-0.276,-0.019l-0.275,-0.021l-0.275,-0.021l-0.274,-0.022l-0.275,-0.023l-0.274,-0.024l-0.274,-0.025l-0.273,-0.026l-0.274,-0.026l-0.273,-0.028l-0.273,-0.028l-0.272,-0.029l-0.273,-0.03l-0.272,-0.03l-0.272,-0.032l-0.271,-0.032l-0.272,-0.034l-0.271,-0.034l-0.271,-0.034l-0.27,-0.036l-0.271,-0.037l-0.27,-0.037l-0.269,-0.038l-0.27,-0.039l-0.269,-0.04l-0.269,-0.041l-0.269,-0.042l-0.268,-0.042l-0.268,-0.043l-0.268,-0.044l-0.268,-0.045l-0.267,-0.046l-0.267,-0.046l-0.267,-0.047l-0.266,-0.048l-0.267,-0.049l-0.266,-0.05l-0.265,-0.051l-0.266,-0.051l-0.265,-0.052l-0.264,-0.053l-0.265,-0.054l-0.264,-0.054l-0.264,-0.056l-0.264,-0.056l-0.263,-0.057l-0.263,-0.058l-0.263,-0.058l-0.262,-0.059l-0.262,-0.061l-0.262,-0.06l-0.261,-0.062l-0.262,-0.063l-0.26,-0.063l-0.261,-0.064l-0.26,-0.065l-0.26,-0.066l-0.26,-0.066l-0.259,-0.067l-0.259,-0.068l-0.259,-0.069l-0.258,-0.07l-0.258,-0.07l-0.258,-0.071l-0.257,-0.072l-0.258,-0.073l-0.256,-0.073l-0.257,-0.074l-0.256,-0.075l-0.256,-0.076l-0.255,-0.077l-0.255,-0.077l-0.255,-0.078l-0.255,-0.079l-0.254,-0.079l-0.253,-0.081l-0.254,-0.081l-0.253,-0.082l-0.253,-0.082l-0.252,-0.083l-0.252,-0.085l-0.252,-0.084l-0.251,-0.086l-0.252,-0.086l-0.25,-0.087l-0.251,-0.088l-0.25,-0.089l-0.249,-0.089l-0.25,-0.09l-0.249,-0.091l-0.248,-0.092l-0.248,-0.092l-0.248,-0.093l-0.248,-0.094l-0.247,-0.094l-0.247,-0.096l-0.246,-0.096l-0.246,-0.096l-0.246,-0.098l-0.245,-0.098l-0.245,-0.099l-0.245,-0.099l-0.244,-0.101l-0.244,-0.101l-0.243,-0.101l-0.243,-0.103l-0.243,-0.103l-0.242,-0.104l-0.242,-0.105l-0.242,-0.105l-0.241,-0.106l-0.241,-0.107l-0.24,-0.107l-0.24,-0.109l-0.24,-0.109l-0.239,-0.109l-0.239,-0.111l-0.239,-0.111l-0.238,-0.111l-0.237,-0.113l-0.238,-0.113l-0.236,-0.114l-0.237,-0.114l-0.236,-0.115l-0.236,-0.116l-0.235,-0.117l-0.235,-0.117l-0.234,-0.118l-0.234,-0.119l-0.234,-0.119l-0.233,-0.12l-0.233,-0.121l-0.233,-0.122l-0.232,-0.122l-0.231,-0.122l-0.231,-0.124l-0.231,-0.124l-0.231,-0.125l-0.229,-0.125l-0.23,-0.127l-0.229,-0.126l-0.229,-0.128l-0.228,-0.128l-0.228,-0.129l-0.227,-0.129l-0.227,-0.131l-0.227,-0.13l-0.226,-0.132l-0.225,-0.132l-0.226,-0.133l-0.224,-0.134l-0.225,-0.134l-0.224,-0.135l-0.223,-0.135l-0.223,-0.136l-0.223,-0.137l-0.222,-0.137l-0.222,-0.138l-0.221,-0.139l-0.221,-0.14l-0.22,-0.14l-0.22,-0.14l-0.219,-0.142l-0.219,-0.142l-0.219,-0.142l-0.218,-0.143l-0.218,-0.144l-0.217,-0.145l-0.217,-0.145l-0.216,-0.146l-0.216,-0.146l-0.215,-0.147l-0.215,-0.148l-0.214,-0.148l-0.214,-0.149l-0.214,-0.15l-0.213,-0.15l-0.212,-0.151l-0.212,-0.151l-0.212,-0.152l-0.211,-0.153l-0.21,-0.153l-0.211,-0.154l-0.209,-0.155l-0.209,-0.155l-0.209,-0.156l-0.208,-0.156l-0.208,-0.157l-0.207,-0.158l-0.207,-0.158l-0.206,-0.159l-0.206,-0.159l-0.205,-0.16l-0.205,-0.161l-0.204,-0.161l-0.204,-0.162l-0.203,-0.162l-0.203,-0.163l-0.203,-0.164l-0.201,-0.164l-0.202,-0.165l-0.2,-0.165l-0.201,-0.166l-0.2,-0.167l-0.199,-0.167l-0.199,-0.168l-0.198,-0.168l-0.198,-0.169l-0.197,-0.169l-0.197,-0.17l-0.196,-0.171l-0.195,-0.171l-0.196,-0.172l-0.194,-0.173l-0.194,-0.173l-0.194,-0.173l-0.193,-0.174l-0.193,-0.175l-0.192,-0.175l-0.191,-0.176l-0.191,-0.176l-0.191,-0.177l-0.189,-0.178l-0.19,-0.178l-0.189,-0.179l-0.188,-0.179l-0.188,-0.18l-0.187,-0.18l-0.187,-0.181l-0.186,-0.181l-0.185,-0.182l-0.186,-0.183l-0.184,-0.183l-0.184,-0.183l-0.183,-0.185l-0.183,-0.184l-0.183,-0.186l-0.181,-0.185l-0.182,-0.187l-0.18,-0.187l-0.18,-0.187l-0.18,-0.188l-0.179,-0.189l-0.178,-0.189l-0.178,-0.189l-0.178,-0.19l-0.176,-0.191l-0.177,-0.191l-0.175,-0.192l-0.175,-0.192l-0.175,-0.193l-0.174,-0.193l-0.173,-0.194l-0.173,-0.195l-0.172,-0.194l-0.172,-0.196l-0.171,-0.196l-0.17,-0.196l-0.17,-0.197l-0.169,-0.198l-0.169,-0.197l-0.168,-0.199l-0.168,-0.199l-0.167,-0.199l-0.166,-0.2l-0.166,-0.201l-0.165,-0.201l-0.165,-0.202l-0.164,-0.202l-0.163,-0.202l-0.163,-0.203l-0.162,-0.204l-0.162,-0.204l-0.161,-0.204l-0.16,-0.205l-0.16,-0.206l-0.16,-0.206l-0.158,-0.206l-0.158,-0.207l-0.158,-0.208l-0.156,-0.208l-0.157,-0.208l-0.155,-0.209l-0.155,-0.209l-0.155,-0.21l-0.153,-0.211l-0.153,-0.211l-0.153,-0.211l-0.152,-0.212l-0.151,-0.212l-0.151,-0.213l-0.15,-0.213l-0.149,-0.214l-0.149,-0.214l-0.148,-0.214l-0.148,-0.216l-0.146,-0.215l-0.147,-0.216l-0.145,-0.217l-0.145,-0.217l-0.145,-0.217l-0.143,-0.218l-0.144,-0.218l-0.142,-0.219l-0.142,-0.219l-0.141,-0.22l-0.14,-0.22l-0.14,-0.221l-0.14,-0.221l-0.138,-0.221l-0.138,-0.222l-0.137,-0.223l-0.137,-0.223l-0.136,-0.223l-0.135,-0.224l-0.135,-0.224l-0.134,-0.224l-0.133,-0.225l-0.133,-0.226l-0.132,-0.226l-0.131,-0.226l-0.131,-0.227l-0.13,-0.227l-0.13,-0.228l-0.128,-0.228l-0.128,-0.228l-0.128,-0.229l-0.126,-0.23l-0.126,-0.229l-0.126,-0.231l-0.124,-0.23l-0.124,-0.231l-0.124,-0.232l-0.122,-0.231l-0.122,-0.233l-0.122,-0.232l-0.12,-0.234l-0.12,-0.233l-0.119,-0.234l-0.119,-0.234l-0.118,-0.235l-0.117,-0.235l-0.116,-0.236l-0.116,-0.236l-0.115,-0.236l-0.115,-0.237l-0.113,-0.237l-0.113,-0.238l-0.113,-0.238l-0.111,-0.238l-0.111,-0.239l-0.11,-0.239l-0.11,-0.239l-0.109,-0.24l-0.108,-0.24l-0.107,-0.241l-0.107,-0.241l-0.106,-0.242l-0.105,-0.242l-0.105,-0.242l-0.103,-0.242l-0.104,-0.243l-0.102,-0.244l-0.102,-0.243l-0.1,-0.245l-0.101,-0.244l-0.099,-0.245l-0.099,-0.245l-0.098,-0.246l-0.097,-0.246l-0.097,-0.246l-0.096,-0.247l-0.095,-0.247l-0.094,-0.247l-0.094,-0.248l-0.093,-0.248l-0.092,-0.249l-0.092,-0.249l-0.09,-0.249l-0.09,-0.249l-0.089,-0.25l-0.089,-0.251l-0.088,-0.25l-0.087,-0.251l-0.086,-0.252l-0.085,-0.251l-0.085,-0.252l-0.084,-0.253l-0.083,-0.252l-0.083,-0.253l-0.082,-0.254l-0.081,-0.254l-0.08,-0.254l-0.079,-0.254l-0.079,-0.255l-0.078,-0.255l-0.077,-0.255l-0.077,-0.256l-0.075,-0.256l-0.075,-0.257l-0.074,-0.256l-0.074,-0.257l-0.072,-0.258l-0.072,-0.257l-0.071,-0.259l-0.07,-0.258l-0.07,-0.259l-0.069,-0.259l-0.068,-0.259l-0.067,-0.259l-0.066,-0.26l-0.066,-0.261l-0.065,-0.26l-0.064,-0.261l-0.063,-0.261l-0.062,-0.262l-0.062,-0.262l-0.061,-0.262l-0.06,-0.262l-0.059,-0.263l-0.059,-0.263l-0.057,-0.263l-0.057,-0.264l-0.056,-0.263l-0.056,-0.265l-0.054,-0.264l-0.054,-0.265l-0.053,-0.265l-0.052,-0.265l-0.051,-0.266l-0.05,-0.266l-0.05,-0.266l-0.049,-0.267l-0.048,-0.266l-0.047,-0.268l-0.047,-0.267l-0.045,-0.268l-0.045,-0.267l-0.044,-0.269l-0.043,-0.268l-0.042,-0.269l-0.042,-0.269l-0.04,-0.269l-0.04,-0.27l-0.039,-0.269l-0.039,-0.271l-0.037,-0.27l-0.036,-0.271l-0.036,-0.27l-0.035,-0.272l-0.034,-0.271l-0.033,-0.272l-0.033,-0.272l-0.031,-0.272l-0.031,-0.272l-0.03,-0.273l-0.029,-0.273l-0.028,-0.273l-0.027,-0.273l-0.026,-0.274l-0.026,-0.274l-0.025,-0.274l-0.024,-0.275l-0.023,-0.274l-0.022,-0.275l-0.021,-0.275l-0.021,-0.276l-0.019,-0.275l-0.019,-0.276l-0.018,-0.276l-0.017,-0.277l-0.016,-0.276l-0.016,-0.277l-0.014,-0.277l-0.014,-0.277l-0.013,-0.278l-0.011,-0.278l-0.011,-0.278l-0.011,-0.278l-0.009,-0.278l-0.008,-0.279l-0.008,-0.279l-0.006,-0.279l-0.006,-0.279l-0.005,-0.279l-0.004,-0.28l-0.003,-0.28l-0.002,-0.28l-0.001,-0.28l-0.001,-0.281l0.001,-0.28l0.001,-0.281l0.002,-0.28l0.003,-0.28l0.004,-0.279l0.005,-0.28l0.006,-0.279l0.006,-0.279l0.008,-0.279l0.008,-0.279l0.009,-0.278l0.011,-0.278l0.011,-0.278l0.011,-0.278l0.013,-0.277l0.014,-0.278l0.014,-0.277l0.016,-0.276l0.016,-0.277l0.017,-0.276l0.018,-0.276l0.019,-0.276l0.019,-0.276l0.021,-0.275l0.021,-0.276l0.022,-0.274l0.023,-0.275l0.024,-0.275l0.025,-0.274l0.026,-0.274l0.026,-0.273l0.027,-0.274l0.028,-0.273l0.029,-0.273l0.03,-0.273l0.031,-0.272l0.031,-0.272l0.033,-0.272l0.033,-0.272l0.034,-0.271l0.035,-0.271l0.036,-0.271l0.036,-0.271l0.037,-0.27l0.039,-0.27l0.039,-0.27l0.04,-0.27l0.04,-0.269l0.042,-0.269l0.042,-0.269l0.043,-0.268l0.044,-0.268l0.045,-0.268l0.045,-0.268l0.047,-0.267l0.047,-0.267l0.048,-0.267l0.049,-0.267l0.05,-0.266l0.05,-0.266l0.051,-0.265l0.052,-0.266l0.053,-0.265l0.054,-0.265l0.054,-0.264l0.056,-0.264l0.056,-0.264l0.057,-0.264l0.057,-0.263l0.059,-0.263l0.059,-0.263l0.06,-0.262l0.061,-0.262l0.062,-0.262l0.062,-0.262l0.063,-0.261l0.064,-0.261l0.065,-0.26l0.066,-0.26l0.066,-0.26l0.067,-0.26l0.068,-0.259l0.069,-0.259l0.07,-0.259l0.07,-0.258l0.071,-0.258l0.072,-0.258l0.072,-0.257l0.074,-0.257l0.074,-0.257l0.075,-0.257l0.075,-0.256l0.077,-0.255l0.077,-0.256l0.078,-0.255l0.079,-0.255l0.079,-0.254l0.08,-0.254l0.081,-0.254l0.082,-0.253l0.083,-0.253l0.083,-0.253l0.084,-0.252l0.085,-0.252l0.085,-0.252l0.086,-0.251l0.087,-0.251l0.088,-0.251l0.089,-0.25l0.089,-0.25l0.09,-0.25l0.09,-0.249l0.092,-0.249l0.092,-0.249l0.093,-0.248l0.094,-0.247l0.094,-0.248l0.095,-0.247l0.096,-0.247l0.097,-0.246l0.097,-0.246l0.098,-0.246l0.099,-0.245l0.099,-0.245l0.101,-0.244l0.1,-0.244l0.102,-0.244l0.102,-0.243l0.104,-0.243l0.103,-0.243l0.105,-0.242l0.105,-0.242l0.106,-0.242l0.107,-0.241l0.107,-0.24l0.108,-0.241l0.109,-0.239l0.11,-0.24l0.11,-0.239l0.111,-0.239l0.111,-0.238l0.113,-0.238l0.113,-0.238l0.113,-0.237l0.115,-0.237l0.115,-0.236l0.116,-0.236l0.116,-0.236l0.117,-0.235l0.118,-0.234l0.119,-0.235l0.119,-0.234l0.12,-0.233l0.12,-0.233l0.122,-0.233l0.122,-0.232l0.122,-0.232l0.124,-0.232l0.124,-0.231l0.124,-0.23l0.126,-0.23l0.126,-0.23l0.126,-0.23l0.128,-0.228l0.128,-0.229l0.128,-0.228l0.13,-0.228l0.13,-0.227l0.131,-0.227l0.131,-0.226l0.132,-0.226l0.133,-0.225l0.133,-0.225l0.134,-0.225l0.135,-0.224l0.135,-0.224l0.136,-0.223l0.137,-0.223l0.137,-0.222l0.138,-0.222l0.138,-0.222l0.14,-0.221l0.14,-0.221l0.14,-0.22l0.141,-0.219l0.142,-0.22l0.142,-0.218l0.144,-0.219l0.143,-0.218l0.145,-0.217l0.145,-0.217l0.145,-0.217l0.147,-0.216l0.146,-0.215l0.148,-0.215l0.148,-0.215l0.149,-0.214l0.149,-0.214l0.15,-0.213l0.151,-0.213l0.151,-0.212l0.152,-0.212l0.153,-0.211l0.153,-0.211l0.153,-0.21l0.155,-0.21l0.155,-0.21l0.155,-0.209l0.157,-0.208l0.156,-0.208l0.158,-0.208l0.158,-0.207l0.158,-0.206l0.16,-0.206l0.16,-0.206l0.16,-0.205l0.161,-0.204l0.162,-0.204l0.162,-0.204l0.163,-0.203l0.163,-0.202l0.164,-0.202l0.165,-0.202l0.165,-0.201l0.166,-0.2l0.166,-0.2l0.167,-0.2l0.168,-0.199l0.168,-0.198l0.169,-0.198l0.169,-0.198l0.17,-0.197l0.17,-0.196l0.171,-0.196l0.172,-0.195l0.172,-0.195l0.173,-0.195l0.173,-0.193l0.174,-0.194l0.175,-0.192l0.175,-0.193l0.175,-0.191l0.177,-0.192l0.176,-0.19l0.178,-0.19l0.178,-0.19l0.178,-0.189l0.179,-0.189l0.18,-0.188l0.18,-0.187l0.18,-0.187l0.182,-0.186l0.181,-0.186l0.183,-0.185l0.183,-0.185l0.183,-0.184l0.184,-0.184l0.184,-0.183l0.186,-0.183l0.185,-0.182l0.186,-0.181l0.187,-0.181l0.187,-0.18l0.188,-0.18l0.188,-0.179l0.189,-0.179l0.19,-0.178l0.189,-0.177l0.191,-0.177l0.191,-0.177l0.191,-0.176l0.192,-0.175l0.193,-0.175l0.193,-0.174l0.194,-0.173l0.194,-0.173l0.194,-0.173l0.196,-0.171l0.195,-0.172l0.196,-0.17l0.197,-0.17l0.197,-0.17l0.198,-0.169l0.198,-0.168l0.199,-0.168l0.199,-0.167l0.2,-0.167l0.201,-0.166l0.2,-0.165l0.202,-0.165l0.201,-0.164l0.203,-0.164l0.203,-0.163l0.203,-0.162l0.204,-0.162l0.204,-0.161l0.205,-0.161l0.205,-0.16l0.206,-0.159l0.206,-0.159l0.207,-0.158l0.207,-0.158l0.208,-0.157l0.208,-0.156l0.209,-0.156l0.209,-0.155l0.209,-0.155l0.211,-0.153l0.21,-0.154l0.211,-0.152l0.212,-0.153l0.212,-0.151l0.212,-0.151l0.213,-0.15l0.214,-0.15l0.214,-0.149l0.214,-0.148l0.215,-0.148l0.215,-0.147l0.216,-0.146l0.216,-0.146l0.217,-0.145l0.217,-0.144l0.218,-0.144l0.218,-0.144l0.219,-0.142l0.219,-0.142l0.219,-0.141l0.22,-0.141l0.22,-0.14l0.221,-0.14l0.221,-0.138l0.222,-0.138l0.222,-0.138l0.223,-0.137l0.223,-0.136l0.223,-0.135l0.224,-0.135l0.225,-0.134l0.224,-0.134l0.226,-0.133l0.225,-0.132l0.226,-0.131l0.227,-0.131l0.227,-0.13l0.227,-0.13l0.228,-0.129l0.228,-0.128l0.229,-0.127l0.229,-0.127l0.23,-0.126l0.229,-0.126l0.231,-0.125l0.231,-0.124l0.231,-0.123l0.231,-0.123l0.232,-0.122l0.233,-0.122l0.233,-0.12l0.233,-0.12l0.234,-0.12l0.234,-0.119l0.234,-0.118l0.235,-0.117l0.235,-0.116l0.236,-0.116l0.236,-0.116l0.237,-0.114l0.236,-0.114l0.238,-0.113l0.237,-0.112l0.238,-0.112l0.239,-0.111l0.239,-0.111l0.239,-0.109l0.24,-0.109l0.24,-0.108l0.24,-0.108l0.241,-0.107l0.241,-0.106l0.242,-0.105l0.242,-0.105l0.242,-0.104l0.243,-0.103l0.243,-0.102l0.243,-0.102l0.244,-0.101l0.244,-0.1l0.245,-0.1l0.245,-0.099l0.245,-0.098l0.246,-0.098l0.246,-0.096l0.246,-0.096l0.247,-0.095l0.247,-0.095l0.248,-0.094l0.248,-0.093l0.248,-0.092l0.248,-0.092l0.249,-0.09l0.25,-0.09l0.249,-0.09l0.25,-0.088l0.251,-0.088l0.25,-0.087l0.252,-0.087l0.251,-0.085l0.252,-0.085l0.252,-0.084l0.252,-0.084l0.253,-0.082l0.253,-0.082l0.254,-0.081l0.253,-0.08l0.254,-0.08l0.255,-0.079l0.255,-0.078l0.255,-0.077l0.255,-0.077l0.256,-0.075l0.256,-0.075l0.257,-0.075l0.256,-0.073l0.258,-0.073l0.257,-0.072l0.258,-0.071l0.258,-0.07l0.258,-0.07l0.259,-0.068l0.259,-0.068l0.259,-0.068l0.26,-0.066l0.26,-0.066l0.26,-0.065l0.261,-0.064l0.26,-0.063l0.262,-0.063l0.261,-0.061l0.262,-0.061l0.262,-0.06l0.262,-0.06l0.263,-0.058l0.263,-0.058l0.263,-0.057l0.264,-0.056l0.264,-0.055l0.264,-0.055l0.265,-0.054l0.264,-0.053l0.265,-0.052l0.266,-0.051l0.265,-0.051l0.266,-0.049l0.267,-0.049l0.266,-0.048l0.267,-0.048l0.267,-0.046l0.267,-0.046l0.268,-0.045l0.268,-0.044l0.268,-0.043l0.268,-0.042l0.269,-0.042l0.269,-0.04l0.269,-0.04l0.27,-0.039l0.269,-0.039l0.27,-0.037l0.271,-0.037l0.27,-0.035l0.271,-0.035l0.271,-0.034l0.272,-0.033l0.271,-0.033l0.272,-0.031l0.272,-0.031l0.273,-0.03l0.272,-0.029l0.273,-0.028l0.273,-0.028l0.274,-0.026l0.273,-0.026l0.274,-0.024l0.274,-0.024l0.275,-0.023l0.274,-0.023l0.275,-0.021l0.275,-0.021l0.276,-0.019l0.275,-0.019l0.276,-0.018l0.276,-0.017l0.276,-0.016l0.277,-0.016l0.276,-0.014l0.277,-0.014l0.277,-0.012l0.278,-0.012l0.278,-0.011l0.277,-0.01l0.278,-0.01l0.279,-0.008l0.278,-0.008l0.279,-0.006l0.279,-0.006l0.279,-0.005l0.279,-0.004l0.28,-0.003l0.28,-0.002l0.28,-0.001l0.28,-0.001l0.28,0.001Zm-0.541,5.917l-0.262,0.001l-0.261,0.002l-0.261,0.003l-0.26,0.004l-0.261,0.004l-0.26,0.006l-0.26,0.006l-0.259,0.007l-0.26,0.008l-0.259,0.008l-0.26,0.01l-0.258,0.01l-0.259,0.011l-0.259,0.012l-0.258,0.013l-0.258,0.013l-0.258,0.015l-0.257,0.015l-0.257,0.016l-0.258,0.016l-0.256,0.018l-0.257,0.018l-0.256,0.019l-0.257,0.02l-0.256,0.021l-0.255,0.022l-0.256,0.022l-0.255,0.023l-0.255,0.024l-0.255,0.024l-0.254,0.026l-0.255,0.026l-0.254,0.027l-0.253,0.028l-0.254,0.029l-0.253,0.029l-0.253,0.03l-0.253,0.031l-0.253,0.032l-0.252,0.033l-0.252,0.033l-0.252,0.034l-0.252,0.035l-0.251,0.035l-0.251,0.037l-0.251,0.037l-0.25,0.038l-0.251,0.038l-0.25,0.04l-0.249,0.04l-0.25,0.041l-0.249,0.042l-0.249,0.042l-0.249,0.044l-0.248,0.044l-0.248,0.044l-0.248,0.046l-0.248,0.046l-0.247,0.047l-0.248,0.048l-0.246,0.049l-0.247,0.049l-0.246,0.05l-0.246,0.051l-0.246,0.051l-0.246,0.053l-0.245,0.053l-0.245,0.054l-0.244,0.054l-0.245,0.055l-0.244,0.056l-0.243,0.057l-0.244,0.058l-0.243,0.058l-0.243,0.059l-0.243,0.059l-0.242,0.061l-0.242,0.061l-0.242,0.062l-0.241,0.062l-0.241,0.064l-0.241,0.064l-0.241,0.065l-0.24,0.065l-0.24,0.066l-0.24,0.067l-0.239,0.068l-0.239,0.068l-0.239,0.069l-0.239,0.07l-0.238,0.071l-0.238,0.071l-0.237,0.072l-0.237,0.073l-0.237,0.073l-0.237,0.074l-0.236,0.075l-0.236,0.075l-0.236,0.076l-0.235,0.077l-0.235,0.078l-0.235,0.078l-0.234,0.079l-0.234,0.08l-0.234,0.08l-0.234,0.081l-0.233,0.082l-0.233,0.083l-0.232,0.083l-0.232,0.084l-0.232,0.084l-0.231,0.086l-0.231,0.086l-0.231,0.086l-0.231,0.088l-0.23,0.088l-0.23,0.088l-0.229,0.09l-0.229,0.09l-0.229,0.09l-0.229,0.092l-0.228,0.092l-0.227,0.093l-0.228,0.093l-0.227,0.094l-0.227,0.095l-0.226,0.095l-0.226,0.096l-0.226,0.097l-0.225,0.098l-0.225,0.098l-0.224,0.099l-0.225,0.099l-0.224,0.1l-0.223,0.101l-0.223,0.101l-0.223,0.102l-0.223,0.103l-0.222,0.104l-0.221,0.104l-0.222,0.104l-0.221,0.106l-0.22,0.106l-0.221,0.106l-0.219,0.108l-0.22,0.108l-0.219,0.108l-0.219,0.11l-0.218,0.109l-0.218,0.111l-0.218,0.111l-0.217,0.112l-0.217,0.112l-0.217,0.114l-0.216,0.113l-0.215,0.115l-0.216,0.115l-0.215,0.115l-0.214,0.117l-0.215,0.116l-0.213,0.118l-0.214,0.118l-0.213,0.119l-0.212,0.119l-0.213,0.12l-0.211,0.121l-0.212,0.121l-0.211,0.122l-0.21,0.123l-0.211,0.123l-0.21,0.124l-0.209,0.124l-0.209,0.125l-0.209,0.126l-0.208,0.126l-0.208,0.127l-0.207,0.127l-0.207,0.128l-0.207,0.129l-0.206,0.129l-0.205,0.13l-0.206,0.13l-0.205,0.132l-0.204,0.131l-0.204,0.132l-0.204,0.133l-0.203,0.134l-0.203,0.134l-0.202,0.135l-0.202,0.135l-0.202,0.136l-0.201,0.136l-0.2,0.137l-0.2,0.138l-0.2,0.138l-0.2,0.139l-0.199,0.139l-0.198,0.14l-0.198,0.141l-0.198,0.141l-0.197,0.141l-0.197,0.143l-0.196,0.143l-0.196,0.143l-0.195,0.144l-0.195,0.145l-0.194,0.145l-0.195,0.146l-0.193,0.146l-0.193,0.147l-0.193,0.147l-0.192,0.148l-0.192,0.149l-0.191,0.149l-0.191,0.15l-0.191,0.15l-0.19,0.151l-0.189,0.151l-0.189,0.152l-0.189,0.153l-0.188,0.153l-0.187,0.153l-0.187,0.154l-0.187,0.155l-0.186,0.155l-0.186,0.156l-0.185,0.156l-0.185,0.157l-0.184,0.158l-0.184,0.158l-0.184,0.158l-0.182,0.159l-0.183,0.16l-0.182,0.16l-0.181,0.161l-0.181,0.161l-0.181,0.162l-0.18,0.162l-0.179,0.163l-0.179,0.163l-0.179,0.164l-0.178,0.165l-0.177,0.165l-0.177,0.165l-0.177,0.166l-0.176,0.167l-0.175,0.167l-0.175,0.167l-0.175,0.168l-0.174,0.169l-0.173,0.169l-0.173,0.17l-0.173,0.17l-0.172,0.17l-0.171,0.172l-0.171,0.171l-0.171,0.173l-0.17,0.172l-0.169,0.173l-0.169,0.174l-0.169,0.174l-0.167,0.175l-0.168,0.175l-0.167,0.176l-0.166,0.176l-0.166,0.177l-0.165,0.177l-0.165,0.178l-0.164,0.178l-0.164,0.179l-0.163,0.179l-0.163,0.18l-0.162,0.18l-0.161,0.181l-0.161,0.181l-0.161,0.181l-0.16,0.183l-0.159,0.182l-0.159,0.183l-0.159,0.184l-0.157,0.184l-0.158,0.184l-0.156,0.185l-0.157,0.186l-0.155,0.186l-0.155,0.186l-0.155,0.187l-0.154,0.188l-0.153,0.187l-0.153,0.189l-0.153,0.189l-0.151,0.189l-0.152,0.189l-0.15,0.191l-0.15,0.19l-0.15,0.191l-0.149,0.192l-0.148,0.192l-0.148,0.192l-0.147,0.193l-0.147,0.194l-0.146,0.194l-0.146,0.194l-0.145,0.194l-0.144,0.196l-0.144,0.195l-0.143,0.196l-0.143,0.197l-0.142,0.197l-0.142,0.197l-0.141,0.198l-0.14,0.198l-0.14,0.199l-0.139,0.199l-0.139,0.2l-0.138,0.2l-0.137,0.2l-0.137,0.201l-0.137,0.202l-0.135,0.201l-0.135,0.202l-0.135,0.203l-0.134,0.203l-0.133,0.204l-0.133,0.203l-0.132,0.205l-0.132,0.204l-0.131,0.206l-0.13,0.205l-0.13,0.206l-0.129,0.207l-0.128,0.206l-0.128,0.208l-0.128,0.207l-0.126,0.208l-0.126,0.209l-0.126,0.209l-0.125,0.209l-0.124,0.21l-0.124,0.21l-0.123,0.21l-0.122,0.211l-0.122,0.211l-0.121,0.212l-0.12,0.212l-0.12,0.213l-0.12,0.213l-0.118,0.213l-0.118,0.213l-0.118,0.215l-0.117,0.214l-0.116,0.215l-0.115,0.215l-0.115,0.216l-0.114,0.216l-0.114,0.216l-0.113,0.217l-0.112,0.217l-0.112,0.218l-0.111,0.217l-0.111,0.219l-0.109,0.218l-0.11,0.22l-0.108,0.219l-0.108,0.22l-0.107,0.22l-0.107,0.221l-0.106,0.22l-0.105,0.222l-0.104,0.221l-0.104,0.222l-0.104,0.223l-0.102,0.222l-0.102,0.224l-0.102,0.223l-0.1,0.224l-0.1,0.224l-0.1,0.225l-0.098,0.224l-0.098,0.226l-0.098,0.225l-0.097,0.226l-0.096,0.227l-0.095,0.226l-0.095,0.227l-0.094,0.228l-0.093,0.227l-0.093,0.228l-0.092,0.229l-0.091,0.228l-0.091,0.23l-0.089,0.229l-0.09,0.23l-0.088,0.23l-0.088,0.23l-0.087,0.231l-0.087,0.231l-0.086,0.232l-0.085,0.231l-0.085,0.232l-0.083,0.233l-0.083,0.233l-0.083,0.233l-0.082,0.233l-0.081,0.234l-0.08,0.234l-0.08,0.234l-0.078,0.235l-0.079,0.235l-0.077,0.236l-0.077,0.235l-0.076,0.236l-0.076,0.237l-0.074,0.236l-0.074,0.237l-0.074,0.237l-0.072,0.238l-0.072,0.238l-0.071,0.238l-0.071,0.238l-0.07,0.239l-0.069,0.239l-0.068,0.24l-0.067,0.239l-0.067,0.24l-0.067,0.241l-0.065,0.24l-0.065,0.241l-0.064,0.241l-0.063,0.242l-0.062,0.242l-0.062,0.242l-0.061,0.242l-0.061,0.243l-0.059,0.243l-0.059,0.243l-0.058,0.243l-0.058,0.244l-0.057,0.244l-0.055,0.245l-0.056,0.244l-0.054,0.245l-0.054,0.246l-0.053,0.245l-0.052,0.246l-0.052,0.246l-0.05,0.246l-0.05,0.247l-0.05,0.247l-0.048,0.247l-0.048,0.248l-0.047,0.247l-0.046,0.248l-0.046,0.249l-0.044,0.248l-0.044,0.249l-0.044,0.249l-0.042,0.249l-0.042,0.25l-0.041,0.25l-0.04,0.25l-0.039,0.25l-0.039,0.251l-0.038,0.251l-0.037,0.251l-0.036,0.251l-0.036,0.252l-0.035,0.252l-0.034,0.252l-0.033,0.252l-0.033,0.253l-0.031,0.253l-0.031,0.253l-0.03,0.254l-0.03,0.253l-0.028,0.254l-0.028,0.254l-0.027,0.255l-0.026,0.254l-0.026,0.255l-0.025,0.255l-0.023,0.256l-0.023,0.255l-0.023,0.256l-0.021,0.256l-0.021,0.257l-0.02,0.256l-0.019,0.257l-0.018,0.257l-0.018,0.257l-0.016,0.258l-0.016,0.257l-0.015,0.258l-0.015,0.258l-0.013,0.259l-0.013,0.258l-0.012,0.259l-0.011,0.259l-0.01,0.259l-0.01,0.26l-0.008,0.259l-0.008,0.26l-0.007,0.26l-0.006,0.261l-0.006,0.26l-0.004,0.261l-0.004,0.261l-0.003,0.261l-0.002,0.262l-0.001,0.261l0,0.262l0,0.262l0.001,0.262l0.002,0.261l0.003,0.261l0.004,0.261l0.004,0.261l0.006,0.26l0.006,0.261l0.007,0.26l0.008,0.26l0.008,0.259l0.01,0.26l0.01,0.259l0.011,0.259l0.012,0.259l0.013,0.259l0.013,0.258l0.015,0.258l0.015,0.258l0.016,0.258l0.016,0.257l0.018,0.257l0.018,0.257l0.019,0.257l0.02,0.257l0.021,0.256l0.021,0.256l0.023,0.256l0.023,0.255l0.023,0.256l0.025,0.255l0.026,0.255l0.026,0.254l0.027,0.255l0.028,0.254l0.028,0.254l0.03,0.254l0.03,0.253l0.031,0.253l0.031,0.253l0.033,0.253l0.033,0.252l0.034,0.252l0.035,0.252l0.036,0.252l0.036,0.251l0.037,0.251l0.038,0.251l0.039,0.251l0.039,0.25l0.04,0.25l0.041,0.25l0.042,0.25l0.042,0.249l0.044,0.249l0.044,0.249l0.044,0.249l0.046,0.248l0.046,0.248l0.047,0.248l0.048,0.247l0.048,0.247l0.05,0.247l0.05,0.247l0.05,0.246l0.052,0.246l0.052,0.246l0.053,0.246l0.054,0.245l0.054,0.245l0.056,0.244l0.055,0.245l0.057,0.244l0.058,0.244l0.058,0.243l0.059,0.244l0.059,0.242l0.061,0.243l0.061,0.243l0.062,0.242l0.062,0.241l0.063,0.242l0.064,0.241l0.065,0.241l0.065,0.241l0.067,0.24l0.067,0.24l0.067,0.24l0.068,0.239l0.069,0.239l0.07,0.239l0.071,0.238l0.071,0.239l0.072,0.237l0.072,0.238l0.074,0.237l0.074,0.237l0.074,0.237l0.076,0.236l0.076,0.236l0.077,0.236l0.077,0.235l0.079,0.235l0.078,0.235l0.08,0.234l0.08,0.234l0.081,0.234l0.082,0.233l0.083,0.234l0.083,0.232l0.083,0.233l0.085,0.232l0.085,0.232l0.086,0.231l0.087,0.231l0.087,0.231l0.088,0.23l0.088,0.23l0.09,0.23l0.089,0.23l0.091,0.229l0.091,0.228l0.092,0.229l0.093,0.228l0.093,0.228l0.094,0.227l0.095,0.227l0.095,0.227l0.096,0.226l0.097,0.226l0.098,0.226l0.098,0.225l0.098,0.225l0.1,0.224l0.1,0.224l0.1,0.224l0.102,0.224l0.102,0.223l0.102,0.223l0.104,0.222l0.104,0.222l0.104,0.222l0.105,0.221l0.106,0.221l0.107,0.22l0.107,0.221l0.108,0.219l0.108,0.22l0.11,0.219l0.109,0.218l0.111,0.219l0.111,0.218l0.112,0.217l0.112,0.217l0.113,0.217l0.114,0.217l0.114,0.216l0.115,0.215l0.115,0.215l0.116,0.215l0.117,0.215l0.118,0.214l0.118,0.213l0.118,0.214l0.12,0.213l0.12,0.212l0.12,0.212l0.121,0.212l0.122,0.211l0.122,0.211l0.123,0.211l0.124,0.21l0.124,0.209l0.125,0.21l0.126,0.208l0.126,0.209l0.126,0.208l0.128,0.208l0.128,0.207l0.128,0.207l0.129,0.206l0.13,0.206l0.13,0.206l0.131,0.205l0.132,0.204l0.132,0.205l0.133,0.204l0.133,0.203l0.134,0.203l0.135,0.203l0.135,0.202l0.135,0.202l0.137,0.201l0.137,0.201l0.137,0.2l0.138,0.2l0.139,0.2l0.139,0.199l0.14,0.199l0.14,0.198l0.141,0.198l0.142,0.197l0.142,0.197l0.143,0.197l0.143,0.196l0.144,0.196l0.144,0.195l0.145,0.195l0.146,0.194l0.146,0.194l0.147,0.193l0.147,0.193l0.148,0.192l0.148,0.192l0.149,0.192l0.15,0.191l0.15,0.191l0.15,0.19l0.152,0.19l0.151,0.189l0.153,0.188l0.153,0.189l0.153,0.188l0.154,0.187l0.155,0.187l0.155,0.186l0.155,0.186l0.157,0.186l0.156,0.185l0.158,0.184l0.157,0.184l0.159,0.184l0.159,0.183l0.159,0.183l0.16,0.182l0.161,0.181l0.161,0.182l0.161,0.18l0.162,0.18l0.163,0.18l0.163,0.179l0.164,0.179l0.164,0.178l0.165,0.178l0.165,0.177l0.166,0.177l0.166,0.176l0.167,0.176l0.167,0.175l0.168,0.175l0.169,0.174l0.169,0.174l0.169,0.173l0.17,0.173l0.171,0.172l0.171,0.172l0.171,0.171l0.172,0.17l0.173,0.171l0.173,0.169l0.173,0.169l0.174,0.169l0.175,0.168l0.175,0.168l0.175,0.167l0.176,0.166l0.177,0.166l0.177,0.166l0.177,0.165l0.178,0.164l0.179,0.164l0.179,0.163l0.179,0.163l0.18,0.162l0.181,0.162l0.181,0.161l0.181,0.161l0.182,0.16l0.182,0.16l0.183,0.159l0.184,0.159l0.184,0.157l0.184,0.158l0.185,0.157l0.185,0.156l0.186,0.156l0.186,0.155l0.187,0.155l0.187,0.154l0.187,0.154l0.188,0.153l0.189,0.152l0.189,0.152l0.19,0.152l0.189,0.15l0.191,0.151l0.191,0.149l0.191,0.149l0.192,0.149l0.192,0.148l0.193,0.147l0.193,0.147l0.193,0.147l0.195,0.145l0.194,0.146l0.195,0.144l0.195,0.144l0.196,0.144l0.196,0.142l0.197,0.143l0.197,0.142l0.198,0.141l0.198,0.14l0.198,0.14l0.199,0.14l0.2,0.138l0.2,0.139l0.2,0.137l0.2,0.137l0.201,0.137l0.202,0.135l0.202,0.136l0.202,0.134l0.203,0.134l0.203,0.134l0.204,0.133l0.204,0.132l0.204,0.132l0.205,0.131l0.206,0.13l0.205,0.13l0.207,0.129l0.206,0.129l0.207,0.128l0.207,0.127l0.208,0.127l0.208,0.127l0.209,0.125l0.209,0.125l0.209,0.125l0.21,0.123l0.211,0.123l0.21,0.123l0.211,0.122l0.212,0.121l0.211,0.121l0.213,0.12l0.212,0.119l0.213,0.119l0.214,0.118l0.213,0.118l0.215,0.117l0.214,0.116l0.215,0.116l0.216,0.115l0.215,0.114l0.216,0.114l0.217,0.113l0.217,0.112l0.217,0.112l0.218,0.111l0.218,0.111l0.218,0.11l0.219,0.109l0.219,0.109l0.219,0.108l0.22,0.107l0.221,0.107l0.22,0.106l0.221,0.105l0.222,0.105l0.221,0.104l0.222,0.103l0.223,0.103l0.223,0.102l0.223,0.101l0.223,0.101l0.224,0.1l0.225,0.1l0.224,0.098l0.225,0.099l0.225,0.097l0.226,0.097l0.226,0.096l0.227,0.095l0.226,0.095l0.227,0.094l0.228,0.094l0.227,0.092l0.229,0.093l0.228,0.091l0.229,0.091l0.229,0.09l0.229,0.089l0.23,0.089l0.23,0.088l0.231,0.087l0.23,0.087l0.232,0.086l0.231,0.085l0.232,0.084l0.232,0.084l0.232,0.083l0.233,0.083l0.233,0.082l0.234,0.081l0.234,0.08l0.234,0.08l0.234,0.079l0.235,0.078l0.235,0.078l0.235,0.077l0.236,0.076l0.236,0.075l0.236,0.075l0.237,0.074l0.237,0.074l0.237,0.072l0.237,0.072l0.238,0.072l0.239,0.07l0.238,0.07l0.239,0.069l0.239,0.068l0.239,0.068l0.24,0.067l0.24,0.066l0.24,0.066l0.241,0.065l0.24,0.064l0.242,0.063l0.241,0.062l0.242,0.062l0.242,0.061l0.242,0.061l0.243,0.06l0.243,0.058l0.243,0.059l0.243,0.057l0.244,0.057l0.245,0.056l0.244,0.055l0.244,0.055l0.245,0.053l0.246,0.054l0.245,0.052l0.246,0.051l0.246,0.051l0.246,0.05l0.247,0.05l0.246,0.048l0.247,0.048l0.248,0.047l0.248,0.046l0.248,0.046l0.248,0.045l0.248,0.044l0.249,0.043l0.249,0.042l0.249,0.042l0.25,0.041l0.249,0.04l0.25,0.04l0.251,0.038l0.25,0.038l0.251,0.038l0.251,0.036l0.251,0.036l0.252,0.034l0.252,0.034l0.252,0.034l0.252,0.032l0.253,0.032l0.253,0.031l0.253,0.03l0.253,0.03l0.254,0.028l0.253,0.028l0.254,0.027l0.255,0.026l0.254,0.026l0.255,0.024l0.255,0.024l0.255,0.023l0.256,0.023l0.255,0.021l0.256,0.021l0.257,0.02l0.256,0.019l0.257,0.018l0.257,0.018l0.257,0.017l0.257,0.016l0.257,0.015l0.258,0.014l0.258,0.013l0.258,0.013l0.259,0.012l0.259,0.011l0.258,0.01l0.26,0.01l0.259,0.008l0.26,0.008l0.259,0.007l0.26,0.006l0.26,0.006l0.261,0.004l0.261,0.004l0.26,0.003l0.261,0.002l0.262,0.001l0.261,0.001l0.261,-0.001l0.262,-0.001l0.261,-0.002l0.261,-0.003l0.26,-0.004l0.261,-0.004l0.26,-0.006l0.26,-0.006l0.26,-0.007l0.259,-0.008l0.259,-0.008l0.26,-0.01l0.258,-0.01l0.259,-0.011l0.259,-0.012l0.258,-0.013l0.258,-0.013l0.258,-0.014l0.257,-0.015l0.258,-0.016l0.257,-0.017l0.256,-0.018l0.257,-0.018l0.257,-0.019l0.256,-0.02l0.256,-0.021l0.255,-0.021l0.256,-0.023l0.255,-0.023l0.255,-0.024l0.255,-0.024l0.254,-0.026l0.255,-0.026l0.254,-0.027l0.254,-0.028l0.253,-0.028l0.253,-0.03l0.253,-0.03l0.253,-0.031l0.253,-0.032l0.252,-0.032l0.252,-0.034l0.252,-0.034l0.252,-0.034l0.251,-0.036l0.251,-0.036l0.251,-0.038l0.25,-0.038l0.251,-0.038l0.25,-0.04l0.25,-0.04l0.249,-0.041l0.249,-0.042l0.249,-0.042l0.249,-0.043l0.248,-0.044l0.249,-0.045l0.248,-0.046l0.247,-0.046l0.248,-0.047l0.247,-0.048l0.247,-0.048l0.246,-0.05l0.246,-0.05l0.246,-0.051l0.246,-0.051l0.246,-0.052l0.245,-0.054l0.245,-0.053l0.244,-0.055l0.245,-0.055l0.244,-0.056l0.244,-0.057l0.243,-0.057l0.243,-0.059l0.243,-0.058l0.243,-0.06l0.242,-0.061l0.242,-0.061l0.242,-0.062l0.241,-0.062l0.242,-0.063l0.24,-0.064l0.241,-0.065l0.24,-0.066l0.24,-0.066l0.24,-0.067l0.239,-0.068l0.239,-0.068l0.239,-0.069l0.239,-0.07l0.238,-0.07l0.238,-0.072l0.237,-0.072l0.237,-0.072l0.237,-0.074l0.237,-0.074l0.236,-0.075l0.236,-0.075l0.236,-0.076l0.235,-0.077l0.235,-0.078l0.235,-0.078l0.234,-0.079l0.235,-0.08l0.233,-0.08l0.234,-0.081l0.233,-0.082l0.233,-0.083l0.232,-0.083l0.232,-0.084l0.232,-0.084l0.231,-0.085l0.232,-0.086l0.23,-0.087l0.231,-0.087l0.23,-0.088l0.23,-0.089l0.229,-0.089l0.229,-0.09l0.229,-0.091l0.229,-0.091l0.228,-0.093l0.227,-0.092l0.228,-0.094l0.227,-0.094l0.227,-0.095l0.226,-0.095l0.226,-0.096l0.226,-0.097l0.225,-0.097l0.225,-0.099l0.225,-0.098l0.224,-0.1l0.224,-0.1l0.223,-0.101l0.223,-0.101l0.223,-0.102l0.223,-0.103l0.222,-0.103l0.222,-0.104l0.221,-0.105l0.221,-0.105l0.22,-0.106l0.221,-0.107l0.22,-0.107l0.219,-0.108l0.219,-0.109l0.219,-0.109l0.218,-0.11l0.218,-0.111l0.218,-0.111l0.217,-0.112l0.217,-0.112l0.217,-0.113l0.216,-0.114l0.216,-0.114l0.215,-0.115l0.215,-0.116l0.214,-0.116l0.215,-0.117l0.213,-0.118l0.214,-0.118l0.213,-0.119l0.212,-0.119l0.213,-0.12l0.212,-0.121l0.211,-0.121l0.211,-0.122l0.211,-0.123l0.21,-0.123l0.21,-0.123l0.209,-0.125l0.209,-0.125l0.209,-0.125l0.208,-0.127l0.208,-0.126l0.207,-0.128l0.207,-0.128l0.207,-0.129l0.206,-0.129l0.205,-0.13l0.206,-0.13l0.205,-0.131l0.204,-0.132l0.204,-0.132l0.204,-0.133l0.203,-0.134l0.203,-0.134l0.202,-0.134l0.202,-0.136l0.202,-0.135l0.201,-0.137l0.2,-0.137l0.2,-0.137l0.2,-0.139l0.2,-0.139l0.199,-0.139l0.198,-0.14l0.198,-0.14l0.198,-0.141l0.197,-0.142l0.197,-0.143l0.196,-0.142l0.196,-0.144l0.195,-0.144l0.195,-0.144l0.195,-0.146l0.194,-0.145l0.193,-0.147l0.193,-0.147l0.193,-0.147l0.192,-0.148l0.192,-0.149l0.191,-0.149l0.191,-0.149l0.191,-0.151l0.19,-0.15l0.189,-0.152l0.189,-0.152l0.189,-0.152l0.188,-0.153l0.187,-0.154l0.188,-0.154l0.186,-0.155l0.186,-0.155l0.186,-0.156l0.185,-0.156l0.185,-0.157l0.184,-0.158l0.184,-0.158l0.184,-0.158l0.183,-0.159l0.182,-0.16l0.182,-0.16l0.181,-0.161l0.181,-0.161l0.181,-0.162l0.18,-0.162l0.179,-0.163l0.179,-0.163l0.179,-0.164l0.178,-0.164l0.177,-0.165l0.177,-0.166l0.177,-0.166l0.176,-0.166l0.175,-0.167l0.175,-0.168l0.175,-0.168l0.174,-0.169l0.173,-0.169l0.173,-0.169l0.173,-0.171l0.172,-0.17l0.172,-0.171l0.171,-0.172l0.17,-0.172l0.17,-0.173l0.169,-0.173l0.169,-0.174l0.169,-0.174l0.168,-0.175l0.167,-0.175l0.167,-0.176l0.166,-0.176l0.166,-0.177l0.165,-0.177l0.165,-0.178l0.164,-0.178l0.164,-0.179l0.163,-0.179l0.163,-0.18l0.162,-0.18l0.162,-0.18l0.161,-0.182l0.16,-0.181l0.16,-0.182l0.16,-0.183l0.158,-0.183l0.159,-0.184l0.158,-0.184l0.157,-0.184l0.157,-0.185l0.156,-0.186l0.155,-0.186l0.155,-0.186l0.155,-0.187l0.154,-0.187l0.153,-0.188l0.153,-0.188l0.153,-0.189l0.151,-0.19l0.152,-0.189l0.15,-0.19l0.15,-0.191l0.15,-0.191l0.149,-0.192l0.148,-0.192l0.148,-0.192l0.147,-0.193l0.147,-0.194l0.146,-0.193l0.146,-0.194l0.145,-0.195l0.144,-0.195l0.144,-0.196l0.144,-0.196l0.142,-0.197l0.142,-0.197l0.142,-0.197l0.141,-0.198l0.14,-0.198l0.14,-0.199l0.139,-0.199l0.139,-0.2l0.138,-0.2l0.138,-0.2l0.136,-0.201l0.137,-0.201l0.135,-0.202l0.136,-0.202l0.134,-0.203l0.134,-0.203l0.133,-0.203l0.133,-0.204l0.132,-0.205l0.132,-0.204l0.131,-0.205l0.13,-0.206l0.13,-0.206l0.129,-0.206l0.128,-0.207l0.128,-0.207l0.128,-0.208l0.126,-0.208l0.126,-0.209l0.126,-0.208l0.125,-0.21l0.124,-0.209l0.124,-0.21l0.123,-0.211l0.122,-0.211l0.122,-0.211l0.121,-0.212l0.121,-0.212l0.119,-0.212l0.12,-0.213l0.118,-0.214l0.119,-0.213l0.117,-0.214l0.117,-0.215l0.116,-0.215l0.115,-0.215l0.115,-0.215l0.115,-0.216l0.113,-0.217l0.113,-0.217l0.113,-0.217l0.111,-0.217l0.111,-0.218l0.111,-0.219l0.11,-0.218l0.109,-0.219l0.108,-0.22l0.108,-0.219l0.107,-0.221l0.107,-0.22l0.106,-0.221l0.105,-0.221l0.105,-0.222l0.104,-0.222l0.103,-0.223l0.102,-0.222l0.102,-0.223l0.102,-0.224l0.1,-0.224l0.1,-0.224l0.1,-0.224l0.099,-0.225l0.098,-0.225l0.097,-0.226l0.097,-0.226l0.096,-0.226l0.095,-0.227l0.095,-0.227l0.094,-0.227l0.093,-0.228l0.093,-0.228l0.092,-0.228l0.091,-0.229l0.091,-0.229l0.09,-0.23l0.089,-0.229l0.088,-0.231l0.088,-0.23l0.088,-0.231l0.086,-0.231l0.086,-0.231l0.085,-0.232l0.085,-0.232l0.083,-0.233l0.084,-0.232l0.082,-0.234l0.082,-0.233l0.081,-0.234l0.08,-0.234l0.08,-0.234l0.079,-0.235l0.078,-0.235l0.077,-0.235l0.077,-0.236l0.076,-0.236l0.076,-0.236l0.074,-0.237l0.074,-0.237l0.074,-0.237l0.072,-0.238l0.072,-0.237l0.071,-0.239l0.071,-0.238l0.07,-0.239l0.069,-0.239l0.068,-0.239l0.068,-0.24l0.066,-0.24l0.067,-0.24l0.065,-0.241l0.065,-0.241l0.064,-0.241l0.063,-0.242l0.063,-0.241l0.061,-0.242l0.062,-0.243l0.06,-0.242l0.059,-0.243l0.059,-0.244l0.059,-0.243l0.057,-0.244l0.057,-0.244l0.056,-0.245l0.055,-0.244l0.054,-0.245l0.054,-0.245l0.053,-0.246l0.052,-0.246l0.052,-0.246l0.05,-0.246l0.05,-0.247l0.05,-0.247l0.048,-0.247l0.048,-0.247l0.047,-0.248l0.046,-0.248l0.046,-0.248l0.045,-0.249l0.044,-0.249l0.043,-0.249l0.042,-0.249l0.042,-0.25l0.041,-0.249l0.04,-0.251l0.039,-0.25l0.039,-0.251l0.038,-0.25l0.037,-0.252l0.037,-0.251l0.035,-0.252l0.035,-0.252l0.034,-0.252l0.033,-0.252l0.033,-0.253l0.031,-0.253l0.031,-0.253l0.03,-0.253l0.03,-0.254l0.028,-0.254l0.028,-0.254l0.027,-0.255l0.027,-0.254l0.025,-0.255l0.025,-0.255l0.023,-0.256l0.024,-0.255l0.022,-0.256l0.021,-0.256l0.021,-0.256l0.02,-0.257l0.019,-0.257l0.018,-0.257l0.018,-0.257l0.017,-0.257l0.015,-0.258l0.016,-0.258l0.014,-0.258l0.013,-0.258l0.013,-0.259l0.012,-0.259l0.011,-0.259l0.01,-0.259l0.01,-0.259l0.008,-0.26l0.008,-0.26l0.007,-0.26l0.006,-0.261l0.006,-0.26l0.004,-0.261l0.004,-0.261l0.003,-0.261l0.002,-0.262l0.001,-0.261l0.001,-0.262l-0.001,-0.262l-0.001,-0.261l-0.002,-0.262l-0.003,-0.261l-0.004,-0.261l-0.004,-0.261l-0.006,-0.26l-0.006,-0.261l-0.007,-0.26l-0.008,-0.26l-0.008,-0.259l-0.01,-0.26l-0.01,-0.259l-0.011,-0.259l-0.012,-0.259l-0.013,-0.258l-0.013,-0.259l-0.014,-0.258l-0.016,-0.258l-0.015,-0.257l-0.017,-0.258l-0.018,-0.257l-0.018,-0.257l-0.019,-0.257l-0.02,-0.257l-0.021,-0.256l-0.021,-0.256l-0.022,-0.256l-0.024,-0.255l-0.023,-0.256l-0.025,-0.255l-0.025,-0.255l-0.027,-0.254l-0.027,-0.255l-0.028,-0.254l-0.028,-0.254l-0.03,-0.253l-0.03,-0.254l-0.031,-0.253l-0.031,-0.253l-0.033,-0.252l-0.033,-0.253l-0.034,-0.252l-0.035,-0.252l-0.035,-0.252l-0.037,-0.251l-0.037,-0.251l-0.038,-0.251l-0.039,-0.251l-0.039,-0.25l-0.04,-0.25l-0.041,-0.25l-0.042,-0.25l-0.042,-0.249l-0.043,-0.249l-0.044,-0.249l-0.045,-0.249l-0.046,-0.248l-0.046,-0.248l-0.047,-0.247l-0.048,-0.248l-0.048,-0.247l-0.05,-0.247l-0.05,-0.247l-0.05,-0.246l-0.052,-0.246l-0.052,-0.246l-0.053,-0.245l-0.054,-0.246l-0.054,-0.245l-0.055,-0.244l-0.056,-0.245l-0.057,-0.244l-0.057,-0.243l-0.059,-0.244l-0.059,-0.243l-0.059,-0.243l-0.06,-0.243l-0.062,-0.242l-0.061,-0.242l-0.063,-0.242l-0.063,-0.242l-0.064,-0.241l-0.065,-0.241l-0.065,-0.24l-0.067,-0.241l-0.066,-0.24l-0.068,-0.239l-0.068,-0.24l-0.069,-0.239l-0.07,-0.239l-0.071,-0.238l-0.071,-0.238l-0.072,-0.238l-0.072,-0.238l-0.074,-0.237l-0.074,-0.237l-0.074,-0.237l-0.076,-0.236l-0.076,-0.236l-0.077,-0.235l-0.077,-0.236l-0.078,-0.235l-0.079,-0.235l-0.08,-0.234l-0.08,-0.234l-0.081,-0.234l-0.082,-0.233l-0.082,-0.233l-0.084,-0.233l-0.083,-0.232l-0.085,-0.232l-0.085,-0.232l-0.086,-0.232l-0.086,-0.231l-0.088,-0.231l-0.088,-0.23l-0.088,-0.23l-0.089,-0.23l-0.09,-0.229l-0.091,-0.23l-0.091,-0.228l-0.092,-0.229l-0.093,-0.228l-0.093,-0.227l-0.094,-0.228l-0.095,-0.227l-0.095,-0.226l-0.096,-0.227l-0.097,-0.226l-0.097,-0.225l-0.098,-0.225l-0.099,-0.225l-0.1,-0.225l-0.1,-0.224l-0.1,-0.224l-0.102,-0.223l-0.102,-0.224l-0.102,-0.222l-0.103,-0.223l-0.104,-0.222l-0.105,-0.222l-0.105,-0.221l-0.106,-0.22l-0.107,-0.221l-0.107,-0.22l-0.108,-0.22l-0.108,-0.219l-0.109,-0.219l-0.11,-0.219l-0.111,-0.219l-0.111,-0.217l-0.111,-0.218l-0.113,-0.217l-0.113,-0.217l-0.113,-0.216l-0.115,-0.216l-0.115,-0.216l-0.115,-0.215l-0.116,-0.215l-0.117,-0.214l-0.118,-0.215l-0.118,-0.213l-0.118,-0.214l-0.12,-0.212l-0.119,-0.213l-0.121,-0.212l-0.121,-0.212l-0.122,-0.211l-0.122,-0.211l-0.123,-0.21l-0.124,-0.21l-0.124,-0.21l-0.125,-0.209l-0.126,-0.209l-0.126,-0.209l-0.126,-0.208l-0.128,-0.207l-0.128,-0.208l-0.128,-0.206l-0.129,-0.207l-0.13,-0.206l-0.13,-0.205l-0.131,-0.205l-0.132,-0.205l-0.132,-0.204l-0.133,-0.204l-0.133,-0.204l-0.134,-0.203l-0.134,-0.202l-0.136,-0.203l-0.135,-0.201l-0.137,-0.202l-0.137,-0.201l-0.137,-0.2l-0.138,-0.2l-0.139,-0.2l-0.139,-0.199l-0.14,-0.199l-0.14,-0.198l-0.141,-0.198l-0.142,-0.197l-0.142,-0.197l-0.142,-0.197l-0.144,-0.196l-0.144,-0.195l-0.144,-0.196l-0.145,-0.194l-0.146,-0.195l-0.146,-0.193l-0.147,-0.194l-0.147,-0.193l-0.148,-0.192l-0.148,-0.192l-0.149,-0.192l-0.15,-0.191l-0.15,-0.19l-0.15,-0.191l-0.152,-0.189l-0.151,-0.19l-0.153,-0.188l-0.153,-0.188l-0.153,-0.188l-0.154,-0.188l-0.155,-0.187l-0.155,-0.186l-0.155,-0.186l-0.157,-0.186l-0.156,-0.185l-0.157,-0.184l-0.158,-0.184l-0.159,-0.184l-0.159,-0.183l-0.159,-0.182l-0.16,-0.183l-0.16,-0.181l-0.161,-0.181l-0.162,-0.181l-0.162,-0.18l-0.163,-0.18l-0.163,-0.179l-0.164,-0.179l-0.164,-0.178l-0.165,-0.178l-0.165,-0.177l-0.166,-0.177l-0.166,-0.176l-0.167,-0.176l-0.167,-0.175l-0.168,-0.175l-0.169,-0.174l-0.169,-0.174l-0.169,-0.173l-0.17,-0.173l-0.17,-0.172l-0.171,-0.171l-0.172,-0.172l-0.172,-0.17l-0.173,-0.17l-0.173,-0.17l-0.173,-0.169l-0.174,-0.169l-0.175,-0.168l-0.175,-0.167l-0.175,-0.167l-0.176,-0.167l-0.177,-0.166l-0.177,-0.165l-0.177,-0.165l-0.178,-0.165l-0.179,-0.164l-0.179,-0.163l-0.179,-0.163l-0.18,-0.162l-0.181,-0.162l-0.181,-0.161l-0.181,-0.161l-0.182,-0.16l-0.182,-0.16l-0.183,-0.159l-0.184,-0.158l-0.184,-0.158l-0.184,-0.158l-0.185,-0.157l-0.185,-0.156l-0.186,-0.156l-0.186,-0.155l-0.186,-0.155l-0.188,-0.154l-0.187,-0.153l-0.188,-0.153l-0.189,-0.153l-0.189,-0.152l-0.189,-0.151l-0.19,-0.151l-0.191,-0.15l-0.191,-0.15l-0.191,-0.149l-0.192,-0.149l-0.192,-0.148l-0.193,-0.147l-0.193,-0.147l-0.193,-0.146l-0.194,-0.146l-0.195,-0.145l-0.195,-0.145l-0.195,-0.144l-0.196,-0.143l-0.196,-0.143l-0.197,-0.143l-0.197,-0.141l-0.198,-0.141l-0.198,-0.141l-0.198,-0.14l-0.199,-0.139l-0.2,-0.139l-0.199,-0.138l-0.201,-0.138l-0.2,-0.137l-0.201,-0.136l-0.202,-0.136l-0.202,-0.135l-0.202,-0.135l-0.203,-0.134l-0.203,-0.134l-0.204,-0.133l-0.204,-0.132l-0.204,-0.131l-0.205,-0.132l-0.206,-0.13l-0.205,-0.13l-0.206,-0.129l-0.207,-0.129l-0.207,-0.128l-0.207,-0.127l-0.208,-0.127l-0.208,-0.126l-0.209,-0.126l-0.209,-0.125l-0.209,-0.124l-0.21,-0.124l-0.21,-0.123l-0.211,-0.123l-0.211,-0.122l-0.212,-0.121l-0.211,-0.121l-0.213,-0.12l-0.212,-0.119l-0.213,-0.119l-0.214,-0.118l-0.213,-0.118l-0.214,-0.116l-0.215,-0.117l-0.215,-0.115l-0.215,-0.115l-0.216,-0.115l-0.216,-0.114l-0.217,-0.113l-0.217,-0.112l-0.217,-0.112l-0.218,-0.111l-0.218,-0.111l-0.218,-0.11l-0.219,-0.109l-0.219,-0.108l-0.219,-0.108l-0.22,-0.108l-0.22,-0.106l-0.221,-0.106l-0.221,-0.106l-0.221,-0.104l-0.222,-0.104l-0.222,-0.104l-0.223,-0.103l-0.223,-0.102l-0.223,-0.101l-0.223,-0.101l-0.224,-0.1l-0.224,-0.099l-0.225,-0.099l-0.225,-0.098l-0.225,-0.098l-0.226,-0.097l-0.226,-0.096l-0.226,-0.095l-0.227,-0.095l-0.227,-0.094l-0.228,-0.093l-0.227,-0.093l-0.228,-0.092l-0.229,-0.092l-0.229,-0.09l-0.229,-0.09l-0.229,-0.09l-0.23,-0.088l-0.23,-0.088l-0.231,-0.088l-0.23,-0.086l-0.231,-0.086l-0.232,-0.086l-0.232,-0.084l-0.232,-0.084l-0.232,-0.083l-0.233,-0.083l-0.233,-0.082l-0.234,-0.081l-0.233,-0.08l-0.235,-0.08l-0.234,-0.079l-0.235,-0.078l-0.235,-0.078l-0.235,-0.077l-0.236,-0.076l-0.236,-0.075l-0.236,-0.075l-0.237,-0.074l-0.237,-0.073l-0.237,-0.073l-0.237,-0.072l-0.238,-0.071l-0.238,-0.071l-0.239,-0.07l-0.239,-0.069l-0.239,-0.068l-0.239,-0.068l-0.24,-0.067l-0.24,-0.066l-0.24,-0.065l-0.241,-0.065l-0.24,-0.064l-0.242,-0.064l-0.241,-0.062l-0.242,-0.062l-0.242,-0.061l-0.242,-0.061l-0.243,-0.059l-0.243,-0.059l-0.243,-0.058l-0.243,-0.058l-0.244,-0.057l-0.244,-0.056l-0.245,-0.055l-0.244,-0.054l-0.245,-0.054l-0.245,-0.053l-0.246,-0.053l-0.246,-0.051l-0.246,-0.051l-0.246,-0.05l-0.246,-0.049l-0.247,-0.049l-0.247,-0.048l-0.248,-0.047l-0.247,-0.046l-0.248,-0.046l-0.249,-0.044l-0.248,-0.044l-0.249,-0.044l-0.249,-0.042l-0.249,-0.042l-0.249,-0.041l-0.25,-0.04l-0.25,-0.04l-0.251,-0.038l-0.25,-0.038l-0.251,-0.037l-0.251,-0.037l-0.251,-0.035l-0.252,-0.035l-0.252,-0.034l-0.252,-0.033l-0.252,-0.033l-0.253,-0.032l-0.253,-0.031l-0.253,-0.03l-0.253,-0.029l-0.253,-0.029l-0.254,-0.028l-0.254,-0.027l-0.255,-0.026l-0.254,-0.026l-0.255,-0.024l-0.255,-0.024l-0.255,-0.023l-0.256,-0.022l-0.255,-0.022l-0.256,-0.021l-0.256,-0.02l-0.257,-0.019l-0.256,-0.018l-0.257,-0.018l-0.257,-0.016l-0.258,-0.016l-0.257,-0.015l-0.258,-0.015l-0.258,-0.013l-0.258,-0.013l-0.259,-0.012l-0.259,-0.011l-0.258,-0.01l-0.26,-0.01l-0.259,-0.008l-0.259,-0.008l-0.26,-0.007l-0.26,-0.006l-0.26,-0.006l-0.261,-0.004l-0.26,-0.004l-0.261,-0.003l-0.261,-0.002l-0.261,-0.001l-0.262,0l-0.261,0Z" style="fill:#d4d4cc;"/><path id="star-copy" d="M169.585,99.28c0,-1.62 -1.228,-2.626 -3.69,-3.02l-33.061,-4.792l-14.819,-29.869c-0.834,-1.795 -1.911,-2.691 -3.227,-2.691c-1.317,0 -2.393,0.896 -3.228,2.691l-14.819,29.869l-33.064,4.792c-2.458,0.394 -3.688,1.4 -3.688,3.02c0,0.919 0.549,1.97 1.647,3.151l23.974,23.239l-5.664,32.823c-0.088,0.613 -0.131,1.051 -0.131,1.313c0,0.919 0.23,1.696 0.691,2.331c0.461,0.635 1.152,0.951 2.074,0.951c0.791,0 1.669,-0.26 2.635,-0.787l29.572,-15.493l29.574,15.493c0.923,0.526 1.801,0.787 2.634,0.787c0.88,0 1.548,-0.315 2.01,-0.951c0.46,-0.635 0.69,-1.412 0.69,-2.331c0,-0.569 -0.022,-1.006 -0.066,-1.313l-5.665,-32.823l23.908,-23.239c1.143,-1.138 1.713,-2.188 1.713,-3.151Z" style="fill:#d4d4cc;fill-rule:nonzero;"/></svg>